<svg width="22" height="15" viewBox="0 0 22 15" fill="none" xmlns="http://www.w3.org/2000/svg">
<path d="M6.64648 15H4.3418V5.81055C4.3418 5.50456 4.34505 5.19857 4.35156 4.89258C4.35807 4.58659 4.36458 4.28711 4.37109 3.99414C4.38411 3.70117 4.40039 3.42122 4.41992 3.1543C4.2832 3.30404 4.11393 3.4668 3.91211 3.64258C3.7168 3.81836 3.50846 4.00065 3.28711 4.18945L1.64648 5.49805L0.494141 4.04297L4.73242 0.722656H6.64648V15ZM14.4785 9.47266L10.8652 4.18945H13.4824L15.9531 7.98828L18.4336 4.18945H21.041L17.4082 9.47266L21.2266 15H18.5996L15.9531 10.9473L13.2969 15H10.6895L14.4785 9.47266Z" fill="white"/>
</svg>
