<svg width="120" height="120" viewBox="0 0 120 120" fill="none" xmlns="http://www.w3.org/2000/svg">
<circle cx="60" cy="60" r="60" fill="#01B7C4"/>
<path d="M30 60C30.08 60.16 30.18 60.38 30.3 60.66C30.42 60.94 30.72 61.52 31.2 62.4C31.68 63.28 32.2 64.12 32.76 64.92C33.32 65.72 34.1 66.68 35.1 67.8C36.1 68.92 37.14 69.98 38.22 70.98C39.3 71.98 40.64 72.96 42.24 73.92C43.84 74.88 45.48 75.72 47.16 76.44C48.84 77.16 50.8 77.72 53.04 78.12C55.28 78.52 57.6 78.74 60 78.78C62.4 78.82 64.72 78.6 66.96 78.12C69.2 77.64 71.18 77.06 72.9 76.38C74.62 75.7 76.24 74.88 77.76 73.92C79.28 72.96 80.62 71.96 81.78 70.92C82.94 69.88 83.98 68.86 84.9 67.86C85.82 66.86 86.6 65.86 87.24 64.86C87.88 63.86 88.4 63.04 88.8 62.4C89.2 61.76 89.5 61.18 89.7 60.66L90 60C89.96 59.84 89.86 59.62 89.7 59.34C89.54 59.06 89.24 58.5 88.8 57.66C88.36 56.82 87.84 55.98 87.24 55.14C86.64 54.3 85.86 53.32 84.9 52.2C83.94 51.08 82.9 50.04 81.78 49.08C80.66 48.12 79.32 47.14 77.76 46.14C76.2 45.14 74.56 44.3 72.84 43.62C71.12 42.94 69.16 42.38 66.96 41.94C64.76 41.5 62.44 41.28 60 41.28C57.56 41.28 55.24 41.5 53.04 41.94C50.84 42.38 48.86 42.94 47.1 43.62C45.34 44.3 43.72 45.14 42.24 46.14C40.76 47.14 39.42 48.12 38.22 49.08C37.02 50.04 35.98 51.08 35.1 52.2C34.22 53.32 33.44 54.3 32.76 55.14C32.08 55.98 31.56 56.82 31.2 57.66C30.84 58.5 30.54 59.08 30.3 59.4L30 60ZM48.78 60C48.78 56.92 49.86 54.28 52.02 52.08C54.18 49.88 56.84 48.78 60 48.78C63.16 48.78 65.82 49.88 67.98 52.08C70.14 54.28 71.24 56.92 71.28 60C71.32 63.08 70.22 65.74 67.98 67.98C65.74 70.22 63.08 71.32 60 71.28C56.92 71.24 54.26 70.14 52.02 67.98C49.78 65.82 48.7 63.16 48.78 60ZM52.5 60C52.5 62.08 53.24 63.86 54.72 65.34C56.2 66.82 57.96 67.54 60 67.5C62.04 67.46 63.8 66.74 65.28 65.34C66.76 63.94 67.5 62.16 67.5 60C67.5 57.84 66.76 56.08 65.28 54.72C63.8 53.36 62.04 52.62 60 52.5C57.96 52.38 56.2 53.12 54.72 54.72L60 60H52.5Z" fill="white"/>
</svg>
