<svg width="120" height="120" viewBox="0 0 120 120" fill="none" xmlns="http://www.w3.org/2000/svg">
<circle cx="60" cy="60" r="60" fill="#01B7C4"/>
<g clip-path="url(#clip0_0_78)">
<path d="M55.325 69.605L53.355 76.955L48.5275 75.66L50.495 68.3125C47.5499 67.2263 44.8128 65.6434 42.4025 63.6325L37.02 69.0175L33.4825 65.48L38.8675 60.0975C35.8277 56.4569 33.7852 52.0894 32.94 47.4225L35.19 47.01C42.4131 52.2179 51.0952 55.014 60 55C69.26 55 77.8275 52.0375 84.81 47.01L87.06 47.42C86.2159 52.0875 84.1743 56.4559 81.135 60.0975L86.5175 65.48L82.98 69.0175L77.5975 63.6325C75.1872 65.6434 72.4501 67.2263 69.505 68.3125L71.4725 75.6625L66.645 76.955L64.675 69.605C61.5809 70.1352 58.4191 70.1352 55.325 69.605Z" fill="white"/>
</g>
<defs>
<clipPath id="clip0_0_78">
<rect width="60" height="60" fill="white" transform="translate(30 30)"/>
</clipPath>
</defs>
</svg>
