<svg width="206" height="43" viewBox="0 0 206 43" fill="none" xmlns="http://www.w3.org/2000/svg">
<path d="M0 37.25L15.6319 13.6117V13.4056H1.46139V6.96045H25.2808V11.457L9.98617 34.7956V34.9954H25.5244V41.4468H0V37.25Z" fill="white"/>
<path d="M37.5652 9.46506C37.577 9.98829 37.4809 10.5084 37.2828 10.9928C37.0847 11.4772 36.7889 11.9157 36.4139 12.2807C36.0388 12.6458 35.5926 12.9297 35.103 13.1146C34.6134 13.2996 34.091 13.3817 33.5682 13.3559C32.5297 13.3492 31.5364 12.9303 30.8067 12.1913C30.077 11.4523 29.6708 10.4536 29.6774 9.4151C29.6841 8.37657 30.103 7.38321 30.842 6.65354C31.581 5.92387 32.5797 5.51767 33.6182 5.5243C34.1414 5.50417 34.6631 5.59228 35.1507 5.78311C35.6383 5.97395 36.0812 6.2634 36.4517 6.63334C36.8222 7.00327 37.1124 7.44573 37.304 7.93299C37.4956 8.42025 37.5845 8.94183 37.5652 9.46506ZM29.9148 16.4223H37.3216V41.4408H29.9148V16.4223Z" fill="white"/>
<path d="M43.2173 24.4036C43.2173 21.2809 43.1236 18.6205 43.0237 16.4221H49.2689L49.6062 19.8008H49.7561C50.5028 18.5665 51.5629 17.5517 52.8287 16.8596C54.0945 16.1674 55.5209 15.8226 56.9631 15.8601C58.3577 15.8043 59.7352 16.1829 60.9054 16.9436C62.0756 17.7043 62.9807 18.8096 63.4957 20.1068H63.5893C64.3988 18.9059 65.4417 17.88 66.6558 17.0904C68.0138 16.2426 69.5892 15.8086 71.1898 15.8413C75.7676 15.8413 79.2275 19.22 79.2275 26.6893V41.4406H72.0142V27.8322C72.0142 24.1975 70.89 22.0991 68.5044 22.0991C67.7198 22.1263 66.9647 22.4051 66.3507 22.8942C65.7367 23.3834 65.2963 24.0571 65.0944 24.8158C64.8993 25.4618 64.8004 26.1331 64.8009 26.808V41.4406H57.5939V27.4513C57.5939 24.2787 56.5197 22.1241 54.184 22.1241C52.2792 22.1241 51.1613 23.6604 50.7241 24.9407C50.508 25.5646 50.4085 26.223 50.4306 26.8829V41.4406H43.2173V24.4036Z" fill="white"/>
<path d="M90.7748 31.4168C91.0184 34.6394 94.0411 36.1757 97.501 36.1757C99.7347 36.201 101.957 35.8549 104.077 35.1515L105.051 40.4225C102.304 41.4896 99.3739 42.0094 96.4268 41.9526C88.3392 41.9526 83.7114 37.0438 83.7114 29.2122C83.7114 22.867 87.4586 15.8599 95.746 15.8599C103.446 15.8599 106.363 22.1551 106.363 28.3504C106.365 29.3795 106.283 30.4071 106.119 31.4231L90.7748 31.4168ZM99.5182 26.0958C99.5182 24.2223 98.7375 21.0247 95.3276 21.0247C92.205 21.0247 90.9559 23.9974 90.7436 26.0958H99.5182Z" fill="white"/>
<path d="M133.848 5.11841V33.9715C133.848 36.7881 133.948 39.7546 134.042 41.4658H127.453L127.11 37.7874H127.016C126.283 39.1121 125.2 40.2093 123.884 40.9585C122.569 41.7076 121.072 42.0798 119.559 42.0342C113.939 42.0342 109.38 36.963 109.38 29.1877C109.33 20.7441 114.376 15.8852 120.046 15.8852C122.969 15.8852 125.261 16.9594 126.335 18.7019H126.429V5.11841H133.848ZM126.442 27.0143C126.435 26.5529 126.404 26.0921 126.348 25.6341C125.904 23.5357 124.299 21.7933 121.976 21.7933C118.616 21.7933 116.861 24.9659 116.861 28.9066C116.861 33.1534 118.86 35.8139 121.926 35.8139C122.971 35.8052 123.979 35.4225 124.766 34.735C125.553 34.0476 126.067 33.101 126.217 32.0667C126.361 31.4805 126.426 30.8777 126.41 30.2743L126.442 27.0143Z" fill="white"/>
<path d="M157.562 7.37895C160.884 6.8471 164.246 6.60678 167.61 6.66074C172.194 6.66074 175.461 7.58504 177.659 9.4274C178.8 10.4149 179.706 11.6442 180.312 13.0259C180.918 14.4076 181.209 15.907 181.163 17.4151C181.163 20.8 180.138 23.7166 178.14 25.6151C175.604 28.0695 171.845 29.2499 167.454 29.2499C166.604 29.2714 165.754 29.2023 164.919 29.0438V41.4406H157.562V7.37895ZM164.925 23.0795C165.746 23.2483 166.585 23.3175 167.423 23.2856C171.376 23.2856 173.818 21.1872 173.818 17.7024C173.818 14.5298 171.72 12.6312 167.96 12.6312C166.946 12.597 165.931 12.683 164.937 12.8873L164.925 23.0795Z" fill="white"/>
<path d="M185.953 6.91675H206V13.3181H193.366V21.2059H205.169V27.5573H193.366V41.4406H185.953V6.91675Z" fill="white"/>
<path d="M0 37.25L15.6319 13.6117V13.4056H1.46139V6.96045H25.2808V11.457L9.98617 34.7956V34.9954H25.5244V41.4468H0V37.25Z" fill="white"/>
<path d="M37.5652 9.46506C37.577 9.98829 37.4809 10.5084 37.2828 10.9928C37.0847 11.4772 36.7889 11.9157 36.4139 12.2807C36.0388 12.6458 35.5926 12.9297 35.103 13.1146C34.6134 13.2996 34.091 13.3817 33.5682 13.3559C32.5297 13.3492 31.5364 12.9303 30.8067 12.1913C30.077 11.4523 29.6708 10.4536 29.6774 9.4151C29.6841 8.37657 30.103 7.38321 30.842 6.65354C31.581 5.92387 32.5797 5.51767 33.6182 5.5243C34.1414 5.50417 34.6631 5.59228 35.1507 5.78311C35.6383 5.97395 36.0812 6.2634 36.4517 6.63334C36.8222 7.00327 37.1124 7.44573 37.304 7.93299C37.4956 8.42025 37.5845 8.94183 37.5652 9.46506ZM29.9148 16.4223H37.3216V41.4408H29.9148V16.4223Z" fill="white"/>
<path d="M43.2173 24.4036C43.2173 21.2809 43.1236 18.6205 43.0237 16.4221H49.2689L49.6062 19.8008H49.7561C50.5028 18.5665 51.5629 17.5517 52.8287 16.8596C54.0945 16.1674 55.5209 15.8226 56.9631 15.8601C58.3577 15.8043 59.7352 16.1829 60.9054 16.9436C62.0756 17.7043 62.9807 18.8096 63.4957 20.1068H63.5893C64.3988 18.9059 65.4417 17.88 66.6558 17.0904C68.0138 16.2426 69.5892 15.8086 71.1898 15.8413C75.7676 15.8413 79.2275 19.22 79.2275 26.6893V41.4406H72.0142V27.8322C72.0142 24.1975 70.89 22.0991 68.5044 22.0991C67.7198 22.1263 66.9647 22.4051 66.3507 22.8942C65.7367 23.3834 65.2963 24.0571 65.0944 24.8158C64.8993 25.4618 64.8004 26.1331 64.8009 26.808V41.4406H57.5939V27.4513C57.5939 24.2787 56.5197 22.1241 54.184 22.1241C52.2792 22.1241 51.1613 23.6604 50.7241 24.9407C50.508 25.5646 50.4085 26.223 50.4306 26.8829V41.4406H43.2173V24.4036Z" fill="white"/>
<path d="M90.7748 31.4168C91.0184 34.6394 94.0411 36.1757 97.501 36.1757C99.7347 36.201 101.957 35.8549 104.077 35.1515L105.051 40.4225C102.304 41.4896 99.3739 42.0094 96.4268 41.9526C88.3392 41.9526 83.7114 37.0438 83.7114 29.2122C83.7114 22.867 87.4586 15.8599 95.746 15.8599C103.446 15.8599 106.363 22.1551 106.363 28.3504C106.365 29.3795 106.283 30.4071 106.119 31.4231L90.7748 31.4168ZM99.5182 26.0958C99.5182 24.2223 98.7375 21.0247 95.3276 21.0247C92.205 21.0247 90.9559 23.9974 90.7436 26.0958H99.5182Z" fill="white"/>
<path d="M133.848 5.11841V33.9715C133.848 36.7881 133.948 39.7546 134.042 41.4658H127.453L127.11 37.7874H127.016C126.283 39.1121 125.2 40.2093 123.884 40.9585C122.569 41.7076 121.072 42.0798 119.559 42.0342C113.939 42.0342 109.38 36.963 109.38 29.1877C109.33 20.7441 114.376 15.8852 120.046 15.8852C122.969 15.8852 125.261 16.9594 126.335 18.7019H126.429V5.11841H133.848ZM126.442 27.0143C126.435 26.5529 126.404 26.0921 126.348 25.6341C125.904 23.5357 124.299 21.7933 121.976 21.7933C118.616 21.7933 116.861 24.9659 116.861 28.9066C116.861 33.1534 118.86 35.8139 121.926 35.8139C122.971 35.8052 123.979 35.4225 124.766 34.735C125.553 34.0476 126.067 33.101 126.217 32.0667C126.361 31.4805 126.426 30.8777 126.41 30.2743L126.442 27.0143Z" fill="white"/>
<path d="M148.65 5.38066C148.687 6.37912 148.424 7.36585 147.895 8.21339C147.366 9.06094 146.595 9.73037 145.681 10.1352C144.768 10.5401 143.754 10.6617 142.771 10.4845C141.788 10.3072 140.88 9.83923 140.165 9.14093C139.451 8.44263 138.962 7.54609 138.762 6.56714C138.562 5.58818 138.66 4.57177 139.044 3.64919C139.427 2.72661 140.079 1.94025 140.914 1.39168C141.749 0.843101 142.729 0.557512 143.729 0.5718C144.367 0.564376 145.002 0.682875 145.595 0.920533C146.188 1.15819 146.728 1.51035 147.185 1.9569C147.642 2.40345 148.007 2.93565 148.258 3.5231C148.509 4.11055 148.642 4.74175 148.65 5.38066ZM140.088 5.38066C140.071 5.86569 140.152 6.34914 140.325 6.80231C140.499 7.25547 140.762 7.66909 141.099 8.01862C141.436 8.36815 141.839 8.64644 142.286 8.83699C142.732 9.02753 143.212 9.12643 143.697 9.12781C144.444 9.1552 145.181 8.95892 145.815 8.56418C146.449 8.16943 146.951 7.59423 147.256 6.91239C147.56 6.23055 147.655 5.47319 147.526 4.73749C147.397 4.0018 147.052 3.32135 146.533 2.78347C146.015 2.24559 145.348 1.87482 144.618 1.71874C143.887 1.56267 143.127 1.62842 142.434 1.90754C141.742 2.18667 141.148 2.66644 140.73 3.28528C140.312 3.90412 140.088 4.63379 140.088 5.38066ZM143.01 7.7601H141.761V3.17607C142.392 3.04882 143.035 2.99019 143.679 3.00121C144.279 2.93235 144.885 3.06411 145.402 3.37592C145.559 3.4836 145.686 3.62972 145.77 3.8003C145.854 3.97088 145.893 4.16022 145.883 4.35019C145.854 4.61399 145.741 4.86155 145.561 5.05694C145.382 5.25234 145.144 5.38541 144.884 5.43686V5.49307C145.125 5.58829 145.336 5.74827 145.492 5.95542C145.649 6.16256 145.745 6.40885 145.771 6.66718C145.837 7.04943 145.941 7.42398 146.083 7.78508H144.709C144.539 7.45164 144.423 7.09326 144.366 6.72338C144.36 6.62002 144.333 6.519 144.285 6.42691C144.238 6.33482 144.172 6.25373 144.091 6.18892C144.01 6.1241 143.917 6.07702 143.817 6.05075C143.717 6.02447 143.612 6.01958 143.51 6.03641H143.023L143.01 7.7601ZM143.01 5.1246H143.466C144.041 5.1246 144.441 4.92475 144.441 4.50007C144.441 4.07539 144.122 3.87554 143.554 3.87554C143.323 3.87554 143.123 3.87554 143.01 3.87554V5.1246Z" fill="white"/>
</svg>
