<svg width="120" height="120" viewBox="0 0 120 120" fill="none" xmlns="http://www.w3.org/2000/svg">
<circle cx="60" cy="60" r="60" fill="#01B7C4"/>
<g clip-path="url(#clip0_0_67)">
<path d="M88.0754 71.6094C85.6187 70.9727 82.6707 70.06 79.4339 68.1178C76.6343 66.438 73.2243 66.0853 70.8567 66.0853C69.1738 66.0853 67.4269 66.2679 65.8043 66.6135C64.5209 66.8868 62.6855 67.1647 60.7423 67.4588C53.9579 68.486 49.4459 69.279 48.5738 70.8796C48.3626 71.2673 48.3466 71.7036 48.5285 72.1081C49.2477 73.7068 52.0971 73.8532 56.362 73.8943C57.4275 73.9045 58.7588 73.9174 59.6359 74.0117C58.2635 74.6468 55.7081 75.5743 53.9986 75.5744C53.9986 75.5744 53.9982 75.5744 53.9979 75.5744C53.9393 75.5744 53.882 75.5732 53.8255 75.5709C51.5704 75.4767 48.6753 75.0624 45.6101 74.6237C41.9515 74.1003 38.1688 73.5591 35.3075 73.5591C33.9947 73.5591 29.9997 73.5591 29.9997 76.3169C29.9997 78.4807 31.9522 78.9666 33.5448 79.1052C33.0943 79.4803 32.7422 80.0814 32.7422 81.0669C32.7422 83.2489 36.8124 83.679 44.0067 84.2515C47.3763 84.5197 50.8608 84.797 53.3897 85.3671C56.2496 86.0118 59.179 86.3816 61.4266 86.3816C62.4531 86.3816 63.2896 86.3028 63.9128 86.1469C64.3692 86.0329 65.0239 85.8185 65.8527 85.5472C68.2507 84.7622 71.8746 83.5758 74.5388 83.5758C74.8575 83.5758 75.1557 83.5936 75.4253 83.6283C78.9986 84.0893 83.7351 85.4671 85.5828 86.3911C85.7472 86.4733 85.9222 86.515 86.1032 86.515H86.1037C86.6605 86.515 87.5169 86.2062 88.5218 83.5389C89.1202 81.9503 89.5998 79.9709 89.8376 78.1079C90.1782 75.4398 90.1489 72.1466 88.0754 71.6094Z" fill="white"/>
<path d="M40.7987 46.4964H70.2189C70.8579 46.4964 71.387 46.2315 71.6704 45.7697C71.9536 45.3078 71.9501 44.7161 71.6605 44.1463L67.0999 35.177C66.6175 34.2284 65.4059 33.4853 64.3416 33.4853H46.6759C45.6118 33.4853 44.4002 34.2284 43.9178 35.177L39.357 44.1461C39.0674 44.7158 39.0636 45.3075 39.3472 45.7694C39.6304 46.2315 40.1594 46.4964 40.7987 46.4964Z" fill="white"/>
<path d="M52.7083 60.1231C52.7083 61.6673 53.9645 62.9236 55.5086 62.9236C57.0528 62.9236 58.3091 61.6673 58.3091 60.1231C58.3091 58.579 57.0528 57.3227 55.5086 57.3227C53.9645 57.3227 52.7083 58.579 52.7083 60.1231Z" fill="white"/>
<path d="M48.5385 54.4099C50.0826 54.4099 51.3388 53.1537 51.3388 51.6095C51.3388 50.0654 50.0826 48.8091 48.5385 48.8091C46.9943 48.8091 45.7381 50.0654 45.7381 51.6095C45.7381 53.1537 46.9943 54.4099 48.5385 54.4099Z" fill="white"/>
<path d="M62.4789 48.8091C60.9348 48.8091 59.6785 50.0654 59.6785 51.6095C59.6785 53.1537 60.9348 54.4099 62.4789 54.4099C64.0231 54.4099 65.2794 53.1537 65.2794 51.6095C65.2795 50.0654 64.0231 48.8091 62.4789 48.8091Z" fill="white"/>
<path d="M67.8724 62.9236C69.4165 62.9236 70.6728 61.6673 70.6728 60.1231C70.6728 58.579 69.4165 57.3227 67.8724 57.3227C66.3282 57.3227 65.0719 58.579 65.0719 60.1231C65.0719 61.6673 66.3282 62.9236 67.8724 62.9236Z" fill="white"/>
<path d="M43.145 57.3227C41.6009 57.3227 40.3446 58.579 40.3446 60.1231C40.3446 61.6673 41.6009 62.9236 43.145 62.9236C44.6892 62.9236 45.9453 61.6673 45.9453 60.1231C45.9453 58.579 44.6892 57.3227 43.145 57.3227Z" fill="white"/>
</g>
<defs>
<clipPath id="clip0_0_67">
<rect width="60" height="60" fill="white" transform="translate(30 30)"/>
</clipPath>
</defs>
</svg>
