<svg width="36" height="76" viewBox="0 0 36 76" fill="none" xmlns="http://www.w3.org/2000/svg">
<path fill-rule="evenodd" clip-rule="evenodd" d="M18 0.571289C8.05888 0.571289 0 8.63017 0 18.5713V39.1427C0 49.0838 8.05888 57.1427 18 57.1427C27.9411 57.1427 36 49.0838 36 39.1427V18.5713C36 8.63016 27.9411 0.571289 18 0.571289ZM18.1168 12.2596C16.6321 12.2596 15.4285 13.4632 15.4285 14.9479V23.1298C15.4285 24.6145 16.6321 25.8181 18.1168 25.8181C19.6015 25.8181 20.8051 24.6145 20.8051 23.1298V14.9479C20.8051 13.4632 19.6015 12.2596 18.1168 12.2596Z" fill="white"/>
<path d="M4.15385 64.4617L17.5631 74.154L30.4615 64.4617" stroke="white" stroke-width="2" stroke-linecap="round"/>
</svg>
