<svg width="54" height="74" viewBox="0 0 54 74" fill="none" xmlns="http://www.w3.org/2000/svg">
<path d="M26.9994 0C16.8145 12.8118 0.00960852 31.7489 5.75302e-06 47.5225C-0.00959702 63.2961 12.0035 74 26.9994 74C41.9953 74 54.0072 63.2997 54 47.5225C53.9928 31.7453 37.1808 12.8118 26.9994 0Z" fill="#01B7C4"/>
<path d="M22.6465 51H20.3418V41.8105C20.3418 41.5046 20.3451 41.1986 20.3516 40.8926C20.3581 40.5866 20.3646 40.2871 20.3711 39.9941C20.3841 39.7012 20.4004 39.4212 20.4199 39.1543C20.2832 39.304 20.1139 39.4668 19.9121 39.6426C19.7168 39.8184 19.5085 40.0007 19.2871 40.1895L17.6465 41.498L16.4941 40.043L20.7324 36.7227H22.6465V51ZM30.4785 45.4727L26.8652 40.1895H29.4824L31.9531 43.9883L34.4336 40.1895H37.041L33.4082 45.4727L37.2266 51H34.5996L31.9531 46.9473L29.2969 51H26.6895L30.4785 45.4727Z" fill="white"/>
</svg>
