<svg width="129" height="26" viewBox="0 0 129 26" fill="none" xmlns="http://www.w3.org/2000/svg">
<path d="M0 22.9687L9.7889 8.16605V8.03699H0.915144V4.00098H15.8312V6.8168L6.25348 21.4317V21.5569H15.9837V25.5968H0V22.9687Z" fill="#01B7C4"/>
<path d="M23.5239 5.56937C23.5313 5.89703 23.4711 6.2227 23.347 6.52606C23.223 6.82942 23.0377 7.10397 22.8029 7.33258C22.5681 7.56119 22.2886 7.73895 21.982 7.85479C21.6754 7.97062 21.3483 8.02205 21.0209 8.00584C20.3706 8.0017 19.7485 7.73937 19.2916 7.27658C18.8347 6.81378 18.5803 6.18843 18.5845 5.53809C18.5886 4.88775 18.8509 4.26569 19.3137 3.80876C19.7765 3.35183 20.4019 3.09747 21.0522 3.10161C21.3799 3.08901 21.7066 3.14419 22.0119 3.26369C22.3172 3.38319 22.5946 3.56445 22.8266 3.79611C23.0586 4.02777 23.2403 4.30484 23.3603 4.60997C23.4803 4.9151 23.536 5.24172 23.5239 5.56937ZM18.7331 9.92608H23.3714V25.593H18.7331V9.92608Z" fill="#01B7C4"/>
<path d="M27.0632 14.9242C27.0632 12.9687 27.0045 11.3027 26.942 9.92607H30.8528L31.064 12.0418H31.1579C31.6255 11.2689 32.2893 10.6334 33.082 10.2C33.8747 9.76657 34.7679 9.55062 35.671 9.57409C36.5443 9.53915 37.4069 9.77623 38.1397 10.2526C38.8725 10.729 39.4393 11.4211 39.7618 12.2335H39.8204C40.3274 11.4814 40.9804 10.839 41.7407 10.3445C42.5911 9.81365 43.5777 9.54186 44.58 9.56236C47.4466 9.56236 49.6133 11.6781 49.6133 16.3555V25.593H45.0962V17.0712C45.0962 14.7951 44.3923 13.481 42.8983 13.481C42.407 13.4981 41.9342 13.6727 41.5497 13.979C41.1652 14.2853 40.8893 14.7072 40.763 15.1823C40.6407 15.5868 40.5788 16.0072 40.5792 16.4298V25.593H36.066V16.8327C36.066 14.8459 35.3933 13.4967 33.9307 13.4967C32.7379 13.4967 32.0378 14.4588 31.7641 15.2605C31.6287 15.6512 31.5664 16.0635 31.5802 16.4768V25.593H27.0632V14.9242Z" fill="#01B7C4"/>
<path d="M56.8444 19.3159C56.997 21.334 58.8898 22.296 61.0565 22.296C62.4552 22.3119 63.8469 22.0951 65.1746 21.6546L65.7847 24.9554C64.064 25.6237 62.2293 25.9491 60.3838 25.9136C55.3192 25.9136 52.4213 22.8396 52.4213 17.9354C52.4213 13.962 54.7678 9.57397 59.9575 9.57397C64.7796 9.57397 66.606 13.5161 66.606 17.3957C66.607 18.0402 66.556 18.6836 66.4535 19.3199L56.8444 19.3159ZM62.3197 15.9839C62.3197 14.8106 61.8308 12.8083 59.6955 12.8083C57.74 12.8083 56.9579 14.6698 56.8249 15.9839H62.3197Z" fill="#01B7C4"/>
<path d="M83.8178 2.84741V20.9156C83.8178 22.6794 83.8803 24.5371 83.939 25.6087H79.813L79.5979 23.3052H79.5393C79.0804 24.1347 78.4019 24.8218 77.5781 25.2909C76.7544 25.7601 75.8172 25.9932 74.8697 25.9646C71.3499 25.9646 68.495 22.7889 68.495 17.9199C68.4637 12.6324 71.6237 9.58975 75.1748 9.58975C77.005 9.58975 78.4403 10.2624 79.113 11.3536H79.1716V2.84741H83.8178ZM79.1795 16.5589C79.1756 16.27 79.1561 15.9814 79.1208 15.6946C78.8431 14.3806 77.8381 13.2894 76.3832 13.2894C74.2792 13.2894 73.1802 15.2762 73.1802 17.7439C73.1802 20.4033 74.4317 22.0693 76.3519 22.0693C77.0063 22.0639 77.6371 21.8242 78.13 21.3937C78.6228 20.9633 78.9452 20.3705 79.0387 19.7228C79.1289 19.3557 79.1697 18.9783 79.1599 18.6004L79.1795 16.5589Z" fill="#01B7C4"/>
<path d="M98.6673 4.26299C100.748 3.92994 102.853 3.77945 104.96 3.81324C107.83 3.81324 109.876 4.39205 111.252 5.54576C111.967 6.16415 112.534 6.93396 112.914 7.7992C113.293 8.66444 113.475 9.60338 113.446 10.5478C113.446 12.6674 112.805 14.4938 111.554 15.6827C109.966 17.2197 107.611 17.9589 104.862 17.9589C104.33 17.9723 103.797 17.9291 103.274 17.8298V25.5929H98.6673V4.26299ZM103.278 14.0949C103.793 14.2006 104.318 14.2439 104.843 14.224C107.318 14.224 108.847 12.9099 108.847 10.7277C108.847 8.74094 107.533 7.55203 105.179 7.55203C104.544 7.53061 103.908 7.58443 103.286 7.71238L103.278 14.0949Z" fill="#01B7C4"/>
<path d="M116.446 3.97363H129V7.98227H121.088V12.9217H128.48V16.8991H121.088V25.5929H116.446V3.97363Z" fill="#01B7C4"/>
<path d="M0 22.9687L9.7889 8.16605V8.03699H0.915144V4.00098H15.8312V6.8168L6.25348 21.4317V21.5569H15.9837V25.5968H0V22.9687Z" fill="#01B7C4"/>
<path d="M23.5239 5.56937C23.5313 5.89703 23.4711 6.2227 23.347 6.52606C23.223 6.82942 23.0377 7.10397 22.8029 7.33258C22.5681 7.56119 22.2886 7.73895 21.982 7.85479C21.6754 7.97062 21.3483 8.02205 21.0209 8.00584C20.3706 8.0017 19.7485 7.73937 19.2916 7.27658C18.8347 6.81378 18.5803 6.18843 18.5845 5.53809C18.5886 4.88775 18.8509 4.26569 19.3137 3.80876C19.7765 3.35183 20.4019 3.09747 21.0522 3.10161C21.3799 3.08901 21.7066 3.14419 22.0119 3.26369C22.3172 3.38319 22.5946 3.56445 22.8266 3.79611C23.0586 4.02777 23.2403 4.30484 23.3603 4.60997C23.4803 4.9151 23.536 5.24172 23.5239 5.56937ZM18.7331 9.92608H23.3714V25.593H18.7331V9.92608Z" fill="#01B7C4"/>
<path d="M27.0632 14.9242C27.0632 12.9687 27.0045 11.3027 26.942 9.92607H30.8528L31.064 12.0418H31.1579C31.6255 11.2689 32.2893 10.6334 33.082 10.2C33.8747 9.76657 34.7679 9.55062 35.671 9.57409C36.5443 9.53915 37.4069 9.77623 38.1397 10.2526C38.8725 10.729 39.4393 11.4211 39.7618 12.2335H39.8204C40.3274 11.4814 40.9804 10.839 41.7407 10.3445C42.5911 9.81365 43.5777 9.54186 44.58 9.56236C47.4466 9.56236 49.6133 11.6781 49.6133 16.3555V25.593H45.0962V17.0712C45.0962 14.7951 44.3923 13.481 42.8983 13.481C42.407 13.4981 41.9342 13.6727 41.5497 13.979C41.1652 14.2853 40.8893 14.7072 40.763 15.1823C40.6407 15.5868 40.5788 16.0072 40.5792 16.4298V25.593H36.066V16.8327C36.066 14.8459 35.3933 13.4967 33.9307 13.4967C32.7379 13.4967 32.0378 14.4588 31.7641 15.2605C31.6287 15.6512 31.5664 16.0635 31.5802 16.4768V25.593H27.0632V14.9242Z" fill="#01B7C4"/>
<path d="M56.8444 19.3159C56.997 21.334 58.8898 22.296 61.0565 22.296C62.4552 22.3119 63.8469 22.0951 65.1746 21.6546L65.7847 24.9554C64.064 25.6237 62.2293 25.9491 60.3838 25.9136C55.3192 25.9136 52.4213 22.8396 52.4213 17.9354C52.4213 13.962 54.7678 9.57397 59.9575 9.57397C64.7796 9.57397 66.606 13.5161 66.606 17.3957C66.607 18.0402 66.556 18.6836 66.4535 19.3199L56.8444 19.3159ZM62.3197 15.9839C62.3197 14.8106 61.8308 12.8083 59.6955 12.8083C57.74 12.8083 56.9579 14.6698 56.8249 15.9839H62.3197Z" fill="#01B7C4"/>
<path d="M83.8178 2.84741V20.9156C83.8178 22.6794 83.8803 24.5371 83.939 25.6087H79.813L79.5979 23.3052H79.5393C79.0804 24.1347 78.4019 24.8218 77.5781 25.2909C76.7544 25.7601 75.8172 25.9932 74.8697 25.9646C71.3499 25.9646 68.495 22.7889 68.495 17.9199C68.4637 12.6324 71.6237 9.58975 75.1748 9.58975C77.005 9.58975 78.4403 10.2624 79.113 11.3536H79.1716V2.84741H83.8178ZM79.1795 16.5589C79.1756 16.27 79.1561 15.9814 79.1208 15.6946C78.8431 14.3806 77.8381 13.2894 76.3832 13.2894C74.2792 13.2894 73.1802 15.2762 73.1802 17.7439C73.1802 20.4033 74.4317 22.0693 76.3519 22.0693C77.0063 22.0639 77.6371 21.8242 78.13 21.3937C78.6228 20.9633 78.9452 20.3705 79.0387 19.7228C79.1289 19.3557 79.1697 18.9783 79.1599 18.6004L79.1795 16.5589Z" fill="#01B7C4"/>
<path d="M93.0865 3.01169C93.1099 3.63694 92.9453 4.25484 92.6139 4.78559C92.2826 5.31634 91.7997 5.73554 91.2277 5.98906C90.6557 6.24258 90.0208 6.31876 89.405 6.20777C88.7892 6.09678 88.2209 5.80371 87.7734 5.36643C87.3259 4.92914 87.0198 4.36772 86.8946 3.75468C86.7694 3.14164 86.8309 2.50515 87.0711 1.92742C87.3113 1.34969 87.7193 0.857264 88.2422 0.513738C88.7652 0.170212 89.3791 -0.00862756 90.0047 0.000320063C90.4048 -0.00432897 90.8019 0.0698768 91.1733 0.218701C91.5447 0.367525 91.8832 0.588052 92.1694 0.867689C92.4555 1.14733 92.6838 1.48059 92.8412 1.84846C92.9985 2.21633 93.0819 2.6116 93.0865 3.01169ZM87.7247 3.01169C87.7142 3.31543 87.7649 3.61817 87.8737 3.90195C87.9825 4.18572 88.1472 4.44474 88.358 4.66362C88.5689 4.8825 88.8216 5.05677 89.1011 5.17609C89.3806 5.29541 89.6813 5.35734 89.9852 5.35821C90.4526 5.37536 90.9144 5.25245 91.3114 5.00525C91.7085 4.75806 92.0226 4.39786 92.2134 3.97088C92.4043 3.54391 92.4632 3.06963 92.3826 2.60893C92.3021 2.14823 92.0856 1.72212 91.7612 1.3853C91.4367 1.04847 91.0189 0.816287 90.5616 0.718552C90.1042 0.620817 89.6281 0.661989 89.1943 0.83678C88.7604 1.01157 88.3888 1.31201 88.1269 1.69954C87.8651 2.08706 87.725 2.54399 87.7247 3.01169ZM89.555 4.50173H88.7728V1.63115C89.1679 1.55146 89.5705 1.51475 89.9735 1.52165C90.3493 1.47853 90.7288 1.56104 91.0528 1.7563C91.151 1.82373 91.2303 1.91523 91.283 2.02205C91.3357 2.12887 91.3602 2.24744 91.354 2.3664C91.3355 2.5316 91.2649 2.68662 91.1524 2.80898C91.0399 2.93134 90.8913 3.01467 90.7282 3.04689V3.08208C90.8795 3.14171 91.0113 3.2419 91.1093 3.37161C91.2073 3.50133 91.2676 3.65556 91.2836 3.81733C91.3249 4.0567 91.3904 4.29125 91.4791 4.51737H90.6187C90.5122 4.30857 90.4396 4.08415 90.4036 3.85252C90.4001 3.78779 90.383 3.72454 90.3534 3.66687C90.3238 3.6092 90.2823 3.55842 90.2318 3.51783C90.1812 3.47725 90.1227 3.44777 90.06 3.43131C89.9973 3.41486 89.9318 3.4118 89.8679 3.42233H89.5628L89.555 4.50173ZM89.555 2.85134H89.8405C90.2003 2.85134 90.4506 2.7262 90.4506 2.46026C90.4506 2.19432 90.2511 2.06917 89.8952 2.06917C89.7505 2.06917 89.6254 2.06917 89.555 2.06917V2.85134Z" fill="#01B7C4"/>
</svg>
