<svg width="120" height="120" viewBox="0 0 120 120" fill="none" xmlns="http://www.w3.org/2000/svg">
<circle cx="60" cy="60" r="60" fill="#01B7C4"/>
<path d="M46.875 37.5C43.8574 37.5 41.4478 39.7046 39.9023 42.5977C38.3569 45.4907 37.5 49.2847 37.5 53.4375V82.5H67.5V66.3281C68.9648 68.1372 70.8838 69.375 73.125 69.375C76.1426 69.375 78.5522 67.1704 80.0977 64.2773C81.6431 61.3843 82.5 57.5903 82.5 53.4375C82.5 49.2847 81.6431 45.4907 80.0977 42.5977C78.5522 39.7046 76.1426 37.5 73.125 37.5H46.875ZM46.875 41.25H66.9727C66.6797 41.6748 66.4014 42.1289 66.1523 42.5977C64.6069 45.4907 63.75 49.2847 63.75 53.4375C63.75 53.7598 63.8013 54.0601 63.8086 54.375H63.75V78.75H41.25V53.4375C41.25 49.8267 42.0703 46.5527 43.2422 44.3555C44.4141 42.1582 45.7544 41.25 46.875 41.25ZM73.125 41.25C74.2456 41.25 75.5859 42.1582 76.7578 44.3555C77.9297 46.5527 78.75 49.8267 78.75 53.4375C78.75 57.0483 77.9297 60.3223 76.7578 62.5195C75.5859 64.7168 74.2456 65.625 73.125 65.625C72.0044 65.625 70.6641 64.7168 69.4922 62.5195C68.3203 60.3223 67.5 57.0483 67.5 53.4375C67.5 49.8267 68.3203 46.5527 69.4922 44.3555C70.6641 42.1582 72.0044 41.25 73.125 41.25ZM73.125 48.75C72.0923 48.75 71.25 50.8521 71.25 53.4375C71.25 56.0229 72.0923 58.125 73.125 58.125C74.1577 58.125 75 56.0229 75 53.4375C75 50.8521 74.1577 48.75 73.125 48.75ZM46.875 54.375C45.8423 54.375 45 55.2173 45 56.25C45 57.2827 45.8423 58.125 46.875 58.125C47.9077 58.125 48.75 57.2827 48.75 56.25C48.75 55.2173 47.9077 54.375 46.875 54.375ZM52.5 54.375C51.4673 54.375 50.625 55.2173 50.625 56.25C50.625 57.2827 51.4673 58.125 52.5 58.125C53.5327 58.125 54.375 57.2827 54.375 56.25C54.375 55.2173 53.5327 54.375 52.5 54.375ZM58.125 54.375C57.0923 54.375 56.25 55.2173 56.25 56.25C56.25 57.2827 57.0923 58.125 58.125 58.125C59.1577 58.125 60 57.2827 60 56.25C60 55.2173 59.1577 54.375 58.125 54.375Z" fill="white"/>
</svg>
