<svg width="120" height="120" viewBox="0 0 120 120" fill="none" xmlns="http://www.w3.org/2000/svg">
<circle cx="60" cy="60" r="60" fill="#01B7C4"/>
<g clip-path="url(#clip0_0_88)">
<path d="M35.9473 69.0527C34.541 70.4589 33.75 72.3667 33.75 74.3566V79.6874L30 86.2499L33.75 89.9999L40.3125 86.2499H45.6434C47.632 86.2499 49.5398 85.4601 50.9461 84.0538L65.7867 69.2155L50.7867 54.2155L35.9473 69.0527ZM86.7047 33.2952C82.3137 28.9007 75.1875 28.9007 70.7965 33.2952L61.7625 42.3292L60.2273 40.7941C59.1211 39.6878 57.3387 39.703 56.25 40.7941L51.4488 45.5952C50.3508 46.6933 50.3508 48.4745 51.4488 49.5726L70.4262 68.5499C71.5324 69.6562 73.3148 69.6409 74.4035 68.5499L79.2047 63.7499C80.3027 62.6519 80.3027 60.8706 79.2047 59.7726L77.6695 58.2374L86.7035 49.2034C91.0992 44.8112 91.0992 37.6886 86.7047 33.2952Z" fill="white"/>
</g>
<defs>
<clipPath id="clip0_0_88">
<rect width="60" height="60" fill="white" transform="translate(30 30)"/>
</clipPath>
</defs>
</svg>
