<svg width="1240" height="38" viewBox="0 0 1240 38" fill="none" xmlns="http://www.w3.org/2000/svg">
<path d="M0 0.571289H1240" stroke="white"/>
<path d="M1014.24 24.0659C1015.53 24.0659 1016.47 24.3188 1017.06 24.8247C1017.66 25.326 1017.95 26.0461 1017.95 26.9849C1017.95 27.4087 1017.88 27.812 1017.74 28.1948C1017.61 28.5731 1017.38 28.908 1017.07 29.1997C1016.76 29.4868 1016.35 29.7147 1015.85 29.8833C1015.35 30.0474 1014.73 30.1294 1014 30.1294H1012.79V34.0601H1011.62V24.0659H1014.24ZM1014.13 25.0571H1012.79V29.1313H1013.87C1014.51 29.1313 1015.04 29.063 1015.47 28.9263C1015.89 28.7896 1016.22 28.5685 1016.43 28.2632C1016.64 27.9533 1016.75 27.5431 1016.75 27.0327C1016.75 26.3674 1016.54 25.8729 1016.12 25.5493C1015.69 25.2212 1015.03 25.0571 1014.13 25.0571ZM1023.28 26.4312C1023.43 26.4312 1023.59 26.4403 1023.75 26.4585C1023.92 26.4722 1024.06 26.4927 1024.19 26.52L1024.04 27.5728C1023.92 27.5409 1023.79 27.5158 1023.63 27.4976C1023.48 27.4793 1023.34 27.4702 1023.21 27.4702C1022.91 27.4702 1022.63 27.5317 1022.36 27.6548C1022.09 27.7733 1021.86 27.9465 1021.66 28.1743C1021.46 28.3976 1021.3 28.6688 1021.19 28.9878C1021.07 29.3022 1021.02 29.6532 1021.02 30.0405V34.0601H1019.88V26.5679H1020.82L1020.94 27.9487H1020.99C1021.14 27.6707 1021.33 27.4178 1021.55 27.1899C1021.77 26.9575 1022.02 26.7729 1022.31 26.6362C1022.6 26.4995 1022.92 26.4312 1023.28 26.4312ZM1026.74 26.5679V34.0601H1025.6V26.5679H1026.74ZM1026.18 23.7651C1026.37 23.7651 1026.53 23.8267 1026.66 23.9497C1026.8 24.0682 1026.87 24.255 1026.87 24.5103C1026.87 24.7609 1026.8 24.9478 1026.66 25.0708C1026.53 25.1938 1026.37 25.2554 1026.18 25.2554C1025.99 25.2554 1025.82 25.1938 1025.69 25.0708C1025.56 24.9478 1025.5 24.7609 1025.5 24.5103C1025.5 24.255 1025.56 24.0682 1025.69 23.9497C1025.82 23.8267 1025.99 23.7651 1026.18 23.7651ZM1030.79 34.0601L1027.95 26.5679H1029.17L1030.81 31.1001C1030.93 31.41 1031.04 31.7518 1031.16 32.1255C1031.28 32.4992 1031.36 32.8 1031.41 33.0278H1031.46C1031.51 32.8 1031.6 32.4992 1031.73 32.1255C1031.86 31.7472 1031.97 31.4054 1032.08 31.1001L1033.72 26.5679H1034.94L1032.09 34.0601H1030.79ZM1038.95 26.4448C1039.84 26.4448 1040.5 26.6453 1040.94 27.0464C1041.37 27.4474 1041.59 28.0877 1041.59 28.9673V34.0601H1040.76L1040.54 32.9526H1040.49C1040.28 33.2261 1040.06 33.4562 1039.83 33.6431C1039.6 33.8254 1039.34 33.9644 1039.04 34.0601C1038.74 34.1512 1038.38 34.1968 1037.94 34.1968C1037.49 34.1968 1037.08 34.117 1036.73 33.9575C1036.37 33.798 1036.1 33.5565 1035.89 33.2329C1035.69 32.9093 1035.59 32.4992 1035.59 32.0024C1035.59 31.255 1035.89 30.6808 1036.48 30.2798C1037.07 29.8787 1037.97 29.66 1039.19 29.6235L1040.48 29.5688V29.1108C1040.48 28.4637 1040.34 28.0103 1040.06 27.7505C1039.78 27.4907 1039.39 27.3608 1038.89 27.3608C1038.49 27.3608 1038.12 27.4178 1037.76 27.5317C1037.41 27.6457 1037.07 27.7801 1036.75 27.9351L1036.4 27.0737C1036.74 26.9006 1037.13 26.7524 1037.57 26.6294C1038 26.5063 1038.46 26.4448 1038.95 26.4448ZM1040.46 30.3687L1039.32 30.4165C1038.39 30.453 1037.73 30.6056 1037.35 30.8745C1036.96 31.1434 1036.77 31.5239 1036.77 32.0161C1036.77 32.4445 1036.9 32.7612 1037.16 32.9663C1037.42 33.1714 1037.77 33.2739 1038.2 33.2739C1038.86 33.2739 1039.41 33.0894 1039.83 32.7202C1040.25 32.3511 1040.46 31.7974 1040.46 31.0591V30.3687ZM1046.92 34.1968C1046.25 34.1968 1045.66 34.0578 1045.14 33.7798C1044.63 33.5018 1044.22 33.078 1043.94 32.5083C1043.65 31.9386 1043.51 31.2209 1043.51 30.355C1043.51 29.4481 1043.66 28.7075 1043.96 28.1333C1044.26 27.5545 1044.68 27.1261 1045.22 26.8481C1045.75 26.5701 1046.36 26.4312 1047.03 26.4312C1047.41 26.4312 1047.77 26.4699 1048.11 26.5474C1048.47 26.6203 1048.75 26.7137 1048.98 26.8276L1048.63 27.7778C1048.41 27.6867 1048.14 27.6047 1047.84 27.5317C1047.54 27.4588 1047.27 27.4224 1047.01 27.4224C1046.49 27.4224 1046.05 27.534 1045.71 27.7573C1045.37 27.9806 1045.11 28.3088 1044.94 28.7417C1044.77 29.1746 1044.68 29.7078 1044.68 30.3413C1044.68 30.9474 1044.76 31.4647 1044.93 31.8931C1045.1 32.3215 1045.35 32.6496 1045.67 32.8774C1046.01 33.1007 1046.42 33.2124 1046.92 33.2124C1047.31 33.2124 1047.67 33.1714 1047.99 33.0894C1048.31 33.0028 1048.6 32.9025 1048.86 32.7886V33.8003C1048.61 33.9279 1048.33 34.0259 1048.02 34.0942C1047.71 34.1626 1047.35 34.1968 1046.92 34.1968ZM1049.45 26.5679H1050.67L1052.33 30.9155C1052.42 31.1707 1052.51 31.4168 1052.59 31.6538C1052.67 31.8862 1052.75 32.1095 1052.81 32.3237C1052.87 32.5379 1052.92 32.7453 1052.96 32.9458H1053.01C1053.07 32.7179 1053.16 32.4194 1053.28 32.0503C1053.4 31.6766 1053.53 31.2961 1053.67 30.9087L1055.23 26.5679H1056.45L1053.19 35.1606C1053.02 35.6209 1052.82 36.022 1052.58 36.3638C1052.36 36.7056 1052.08 36.9676 1051.75 37.1499C1051.42 37.3368 1051.03 37.4302 1050.56 37.4302C1050.35 37.4302 1050.16 37.4165 1049.99 37.3892C1049.83 37.3664 1049.69 37.339 1049.57 37.3071V36.3979C1049.67 36.4207 1049.79 36.4412 1049.93 36.4595C1050.08 36.4777 1050.23 36.4868 1050.38 36.4868C1050.67 36.4868 1050.91 36.4321 1051.12 36.3228C1051.32 36.2179 1051.5 36.063 1051.66 35.8579C1051.81 35.6528 1051.94 35.409 1052.04 35.1265L1052.46 34.0737L1049.45 26.5679ZM1064.07 24.0659C1065.36 24.0659 1066.3 24.3188 1066.89 24.8247C1067.49 25.326 1067.79 26.0461 1067.79 26.9849C1067.79 27.4087 1067.72 27.812 1067.58 28.1948C1067.44 28.5731 1067.22 28.908 1066.91 29.1997C1066.6 29.4868 1066.19 29.7147 1065.68 29.8833C1065.18 30.0474 1064.57 30.1294 1063.84 30.1294H1062.62V34.0601H1061.46V24.0659H1064.07ZM1063.96 25.0571H1062.62V29.1313H1063.71C1064.35 29.1313 1064.88 29.063 1065.3 28.9263C1065.73 28.7896 1066.05 28.5685 1066.26 28.2632C1066.48 27.9533 1066.58 27.5431 1066.58 27.0327C1066.58 26.3674 1066.37 25.8729 1065.95 25.5493C1065.53 25.2212 1064.86 25.0571 1063.96 25.0571ZM1076.17 30.3003C1076.17 30.9155 1076.09 31.4647 1075.93 31.9478C1075.77 32.4308 1075.54 32.8387 1075.24 33.1714C1074.94 33.5041 1074.57 33.7593 1074.15 33.937C1073.72 34.1102 1073.24 34.1968 1072.7 34.1968C1072.2 34.1968 1071.74 34.1102 1071.32 33.937C1070.91 33.7593 1070.55 33.5041 1070.24 33.1714C1069.94 32.8387 1069.71 32.4308 1069.54 31.9478C1069.37 31.4647 1069.29 30.9155 1069.29 30.3003C1069.29 29.48 1069.43 28.7827 1069.71 28.2085C1069.99 27.6297 1070.38 27.1899 1070.9 26.8892C1071.42 26.5838 1072.04 26.4312 1072.75 26.4312C1073.43 26.4312 1074.03 26.5838 1074.54 26.8892C1075.06 27.1945 1075.46 27.6366 1075.74 28.2153C1076.03 28.7896 1076.17 29.4845 1076.17 30.3003ZM1070.47 30.3003C1070.47 30.9019 1070.55 31.4237 1070.71 31.8657C1070.87 32.3078 1071.11 32.6496 1071.45 32.8911C1071.78 33.1326 1072.21 33.2534 1072.73 33.2534C1073.25 33.2534 1073.68 33.1326 1074.01 32.8911C1074.35 32.6496 1074.59 32.3078 1074.75 31.8657C1074.91 31.4237 1074.99 30.9019 1074.99 30.3003C1074.99 29.7033 1074.91 29.1883 1074.75 28.7554C1074.59 28.3179 1074.35 27.9806 1074.02 27.7437C1073.68 27.5067 1073.25 27.3882 1072.72 27.3882C1071.94 27.3882 1071.37 27.6457 1071.01 28.1606C1070.65 28.6756 1070.47 29.3888 1070.47 30.3003ZM1079.27 34.0601H1078.13V23.4233H1079.27V34.0601ZM1082.81 26.5679V34.0601H1081.67V26.5679H1082.81ZM1082.25 23.7651C1082.44 23.7651 1082.6 23.8267 1082.73 23.9497C1082.87 24.0682 1082.94 24.255 1082.94 24.5103C1082.94 24.7609 1082.87 24.9478 1082.73 25.0708C1082.6 25.1938 1082.44 25.2554 1082.25 25.2554C1082.06 25.2554 1081.89 25.1938 1081.76 25.0708C1081.63 24.9478 1081.57 24.7609 1081.57 24.5103C1081.57 24.255 1081.63 24.0682 1081.76 23.9497C1081.89 23.8267 1082.06 23.7651 1082.25 23.7651ZM1088.21 34.1968C1087.54 34.1968 1086.94 34.0578 1086.43 33.7798C1085.91 33.5018 1085.51 33.078 1085.23 32.5083C1084.94 31.9386 1084.8 31.2209 1084.8 30.355C1084.8 29.4481 1084.95 28.7075 1085.25 28.1333C1085.55 27.5545 1085.97 27.1261 1086.5 26.8481C1087.04 26.5701 1087.64 26.4312 1088.32 26.4312C1088.7 26.4312 1089.06 26.4699 1089.4 26.5474C1089.75 26.6203 1090.04 26.7137 1090.26 26.8276L1089.92 27.7778C1089.69 27.6867 1089.43 27.6047 1089.13 27.5317C1088.83 27.4588 1088.56 27.4224 1088.3 27.4224C1087.78 27.4224 1087.34 27.534 1087 27.7573C1086.66 27.9806 1086.4 28.3088 1086.22 28.7417C1086.06 29.1746 1085.97 29.7078 1085.97 30.3413C1085.97 30.9474 1086.05 31.4647 1086.22 31.8931C1086.39 32.3215 1086.63 32.6496 1086.96 32.8774C1087.3 33.1007 1087.71 33.2124 1088.21 33.2124C1088.6 33.2124 1088.96 33.1714 1089.28 33.0894C1089.6 33.0028 1089.89 32.9025 1090.15 32.7886V33.8003C1089.9 33.9279 1089.62 34.0259 1089.31 34.0942C1089 34.1626 1088.64 34.1968 1088.21 34.1968ZM1090.74 26.5679H1091.96L1093.61 30.9155C1093.71 31.1707 1093.8 31.4168 1093.88 31.6538C1093.96 31.8862 1094.04 32.1095 1094.1 32.3237C1094.16 32.5379 1094.21 32.7453 1094.25 32.9458H1094.3C1094.36 32.7179 1094.45 32.4194 1094.57 32.0503C1094.69 31.6766 1094.82 31.2961 1094.95 30.9087L1096.52 26.5679H1097.74L1094.48 35.1606C1094.31 35.6209 1094.11 36.022 1093.87 36.3638C1093.65 36.7056 1093.37 36.9676 1093.04 37.1499C1092.71 37.3368 1092.32 37.4302 1091.85 37.4302C1091.64 37.4302 1091.45 37.4165 1091.28 37.3892C1091.12 37.3664 1090.98 37.339 1090.86 37.3071V36.3979C1090.96 36.4207 1091.08 36.4412 1091.22 36.4595C1091.37 36.4777 1091.52 36.4868 1091.67 36.4868C1091.96 36.4868 1092.2 36.4321 1092.4 36.3228C1092.61 36.2179 1092.79 36.063 1092.94 35.8579C1093.09 35.6528 1093.22 35.409 1093.33 35.1265L1093.74 34.0737L1090.74 26.5679Z" fill="white"/>
<path d="M5.80762 24.9478C5.25618 24.9478 4.75944 25.0435 4.31738 25.2349C3.87988 25.4217 3.50618 25.6951 3.19629 26.0552C2.89095 26.4106 2.65625 26.8413 2.49219 27.3472C2.32812 27.853 2.24609 28.4227 2.24609 29.0562C2.24609 29.8947 2.37598 30.6239 2.63574 31.2437C2.90007 31.8589 3.29199 32.3351 3.81152 32.6724C4.33561 33.0096 4.98958 33.1782 5.77344 33.1782C6.22005 33.1782 6.63932 33.1418 7.03125 33.0688C7.42773 32.9914 7.81283 32.8957 8.18652 32.7817V33.7935C7.82194 33.9302 7.43913 34.0304 7.03809 34.0942C6.63704 34.1626 6.16081 34.1968 5.60938 34.1968C4.5931 34.1968 3.74316 33.9871 3.05957 33.5679C2.38053 33.144 1.87012 32.547 1.52832 31.7769C1.19108 31.0067 1.02246 30.0975 1.02246 29.0493C1.02246 28.2928 1.12728 27.6024 1.33691 26.978C1.55111 26.3491 1.861 25.8068 2.2666 25.3511C2.67676 24.8953 3.17806 24.5444 3.77051 24.2983C4.36751 24.0477 5.05111 23.9224 5.82129 23.9224C6.32715 23.9224 6.81478 23.9725 7.28418 24.0728C7.75358 24.173 8.17741 24.3166 8.55566 24.5034L8.09082 25.4878C7.77181 25.342 7.4209 25.2166 7.03809 25.1118C6.65983 25.0024 6.24967 24.9478 5.80762 24.9478ZM16.6426 30.3003C16.6426 30.9155 16.5628 31.4647 16.4033 31.9478C16.2438 32.4308 16.0137 32.8387 15.7129 33.1714C15.4121 33.5041 15.0475 33.7593 14.6191 33.937C14.1953 34.1102 13.7145 34.1968 13.1768 34.1968C12.6755 34.1968 12.2152 34.1102 11.7959 33.937C11.3812 33.7593 11.0212 33.5041 10.7158 33.1714C10.415 32.8387 10.1803 32.4308 10.0117 31.9478C9.84766 31.4647 9.76562 30.9155 9.76562 30.3003C9.76562 29.48 9.90462 28.7827 10.1826 28.2085C10.4606 27.6297 10.8571 27.1899 11.3721 26.8892C11.8916 26.5838 12.5091 26.4312 13.2246 26.4312C13.9082 26.4312 14.5052 26.5838 15.0156 26.8892C15.5306 27.1945 15.9294 27.6366 16.2119 28.2153C16.499 28.7896 16.6426 29.4845 16.6426 30.3003ZM10.9414 30.3003C10.9414 30.9019 11.0212 31.4237 11.1807 31.8657C11.3402 32.3078 11.5863 32.6496 11.9189 32.8911C12.2516 33.1326 12.68 33.2534 13.2041 33.2534C13.7236 33.2534 14.1497 33.1326 14.4824 32.8911C14.8197 32.6496 15.068 32.3078 15.2275 31.8657C15.387 31.4237 15.4668 30.9019 15.4668 30.3003C15.4668 29.7033 15.387 29.1883 15.2275 28.7554C15.068 28.3179 14.8219 27.9806 14.4893 27.7437C14.1566 27.5067 13.7259 27.3882 13.1973 27.3882C12.418 27.3882 11.846 27.6457 11.4814 28.1606C11.1214 28.6756 10.9414 29.3888 10.9414 30.3003ZM22.125 26.4312C23.0592 26.4312 23.8044 26.7524 24.3604 27.395C24.9163 28.0376 25.1943 29.0037 25.1943 30.2935C25.1943 31.1457 25.0667 31.8612 24.8115 32.4399C24.5563 33.0187 24.1963 33.4562 23.7314 33.7524C23.2712 34.0487 22.7266 34.1968 22.0977 34.1968C21.7012 34.1968 21.3525 34.1444 21.0518 34.0396C20.751 33.9347 20.4935 33.7935 20.2793 33.6157C20.0651 33.438 19.8874 33.2443 19.7461 33.0347H19.6641C19.6777 33.2124 19.6937 33.4266 19.7119 33.6772C19.7347 33.9279 19.7461 34.1466 19.7461 34.3335V37.4097H18.6045V26.5679H19.541L19.6914 27.6753H19.7461C19.8919 27.4474 20.0697 27.2401 20.2793 27.0532C20.4889 26.8618 20.7441 26.7114 21.0449 26.6021C21.3503 26.4881 21.7103 26.4312 22.125 26.4312ZM21.9268 27.3882C21.4072 27.3882 20.988 27.4884 20.6689 27.689C20.3545 27.8895 20.1243 28.1903 19.9785 28.5913C19.8327 28.9878 19.7552 29.4868 19.7461 30.0884V30.3071C19.7461 30.9406 19.8145 31.4761 19.9512 31.9136C20.0924 32.3511 20.3226 32.6838 20.6416 32.9116C20.9652 33.1395 21.3981 33.2534 21.9404 33.2534C22.4053 33.2534 22.7926 33.1281 23.1025 32.8774C23.4124 32.6268 23.6426 32.2782 23.793 31.8315C23.9479 31.3804 24.0254 30.8631 24.0254 30.2798C24.0254 29.3957 23.8522 28.6938 23.5059 28.1743C23.1641 27.6502 22.6377 27.3882 21.9268 27.3882ZM25.9941 26.5679H27.2109L28.8652 30.9155C28.9609 31.1707 29.0498 31.4168 29.1318 31.6538C29.2139 31.8862 29.2868 32.1095 29.3506 32.3237C29.4144 32.5379 29.4645 32.7453 29.501 32.9458H29.5488C29.6126 32.7179 29.7038 32.4194 29.8223 32.0503C29.9408 31.6766 30.0684 31.2961 30.2051 30.9087L31.7705 26.5679H32.9941L29.7334 35.1606C29.5602 35.6209 29.3574 36.022 29.125 36.3638C28.8971 36.7056 28.6191 36.9676 28.291 37.1499C27.9629 37.3368 27.5664 37.4302 27.1016 37.4302C26.8874 37.4302 26.6982 37.4165 26.5342 37.3892C26.3701 37.3664 26.2288 37.339 26.1104 37.3071V36.3979C26.2106 36.4207 26.3314 36.4412 26.4727 36.4595C26.6185 36.4777 26.7689 36.4868 26.9238 36.4868C27.2064 36.4868 27.4502 36.4321 27.6553 36.3228C27.8649 36.2179 28.0449 36.063 28.1953 35.8579C28.3457 35.6528 28.4756 35.409 28.585 35.1265L28.9951 34.0737L25.9941 26.5679ZM37.5947 26.4312C37.7451 26.4312 37.9023 26.4403 38.0664 26.4585C38.2305 26.4722 38.3763 26.4927 38.5039 26.52L38.3604 27.5728C38.2373 27.5409 38.1006 27.5158 37.9502 27.4976C37.7998 27.4793 37.6585 27.4702 37.5264 27.4702C37.2256 27.4702 36.9408 27.5317 36.6719 27.6548C36.4076 27.7733 36.1751 27.9465 35.9746 28.1743C35.7741 28.3976 35.6169 28.6688 35.5029 28.9878C35.389 29.3022 35.332 29.6532 35.332 30.0405V34.0601H34.1904V26.5679H35.1338L35.2568 27.9487H35.3047C35.4596 27.6707 35.6465 27.4178 35.8652 27.1899C36.084 26.9575 36.3369 26.7729 36.624 26.6362C36.9157 26.4995 37.2393 26.4312 37.5947 26.4312ZM41.0537 26.5679V34.0601H39.9189V26.5679H41.0537ZM40.5 23.7651C40.6868 23.7651 40.8464 23.8267 40.9785 23.9497C41.1152 24.0682 41.1836 24.255 41.1836 24.5103C41.1836 24.7609 41.1152 24.9478 40.9785 25.0708C40.8464 25.1938 40.6868 25.2554 40.5 25.2554C40.304 25.2554 40.14 25.1938 40.0078 25.0708C39.8802 24.9478 39.8164 24.7609 39.8164 24.5103C39.8164 24.255 39.8802 24.0682 40.0078 23.9497C40.14 23.8267 40.304 23.7651 40.5 23.7651ZM45.5518 37.4233C44.5674 37.4233 43.8086 37.2388 43.2754 36.8696C42.7422 36.505 42.4756 35.9924 42.4756 35.3315C42.4756 34.8621 42.6237 34.4611 42.9199 34.1284C43.2207 33.7957 43.6354 33.5747 44.1641 33.4653C43.9681 33.3742 43.7995 33.2375 43.6582 33.0552C43.5215 32.8729 43.4531 32.6632 43.4531 32.4263C43.4531 32.1528 43.5283 31.9136 43.6787 31.7085C43.8337 31.4989 44.0684 31.2983 44.3828 31.1069C43.9909 30.9474 43.6719 30.6785 43.4258 30.3003C43.1842 29.9175 43.0635 29.4731 43.0635 28.9673C43.0635 28.4295 43.1751 27.9715 43.3984 27.5933C43.6217 27.2104 43.9453 26.9188 44.3691 26.7183C44.793 26.5177 45.3057 26.4175 45.9072 26.4175C46.0394 26.4175 46.1715 26.4243 46.3037 26.438C46.4404 26.4471 46.5703 26.4631 46.6934 26.4858C46.8164 26.5041 46.9235 26.5269 47.0146 26.5542H49.585V27.2856L48.2041 27.4565C48.3408 27.6343 48.4548 27.8485 48.5459 28.0991C48.637 28.3498 48.6826 28.6278 48.6826 28.9331C48.6826 29.6805 48.4297 30.2752 47.9238 30.7173C47.418 31.1548 46.723 31.3735 45.8389 31.3735C45.6292 31.3735 45.415 31.3553 45.1963 31.3188C44.973 31.4419 44.8021 31.5786 44.6836 31.729C44.5697 31.8794 44.5127 32.0526 44.5127 32.2485C44.5127 32.3944 44.556 32.5106 44.6426 32.5972C44.7337 32.6838 44.8636 32.7476 45.0322 32.7886C45.2008 32.825 45.4036 32.8433 45.6406 32.8433H46.96C47.7757 32.8433 48.4001 33.0142 48.833 33.356C49.2705 33.6978 49.4893 34.1968 49.4893 34.853C49.4893 35.6825 49.152 36.3182 48.4775 36.7603C47.8031 37.2023 46.8278 37.4233 45.5518 37.4233ZM45.5859 36.5347C46.2057 36.5347 46.7184 36.4709 47.124 36.3433C47.5342 36.2202 47.8395 36.0402 48.04 35.8032C48.2451 35.5708 48.3477 35.2928 48.3477 34.9692C48.3477 34.6685 48.2793 34.4406 48.1426 34.2856C48.0059 34.1353 47.8053 34.035 47.541 33.9849C47.2767 33.9302 46.9531 33.9028 46.5703 33.9028H45.2715C44.9342 33.9028 44.6403 33.9552 44.3896 34.0601C44.139 34.1649 43.9453 34.3198 43.8086 34.5249C43.6764 34.73 43.6104 34.9852 43.6104 35.2905C43.6104 35.6961 43.7812 36.0037 44.123 36.2134C44.4648 36.4276 44.9525 36.5347 45.5859 36.5347ZM45.8799 30.5464C46.4222 30.5464 46.8301 30.4097 47.1035 30.1362C47.377 29.8628 47.5137 29.464 47.5137 28.9399C47.5137 28.3794 47.3747 27.9601 47.0967 27.6821C46.8187 27.3996 46.4085 27.2583 45.8662 27.2583C45.3467 27.2583 44.9456 27.4041 44.6631 27.6958C44.3851 27.9829 44.2461 28.4045 44.2461 28.9604C44.2461 29.4709 44.3874 29.8628 44.6699 30.1362C44.9525 30.4097 45.3558 30.5464 45.8799 30.5464ZM52.1963 23.4233V26.6021C52.1963 26.7843 52.1917 26.9689 52.1826 27.1558C52.1735 27.3381 52.1576 27.5067 52.1348 27.6616H52.21C52.3649 27.3973 52.5609 27.1763 52.7979 26.9985C53.0394 26.8162 53.3128 26.6795 53.6182 26.5884C53.9235 26.4927 54.2471 26.4448 54.5889 26.4448C55.1904 26.4448 55.6917 26.5405 56.0928 26.7319C56.4984 26.9233 56.8014 27.2196 57.002 27.6206C57.207 28.0216 57.3096 28.5412 57.3096 29.1792V34.0601H56.1885V29.2544C56.1885 28.63 56.0449 28.1629 55.7578 27.853C55.4753 27.5431 55.04 27.3882 54.4521 27.3882C53.8962 27.3882 53.4518 27.4953 53.1191 27.7095C52.791 27.9191 52.554 28.229 52.4082 28.6392C52.2669 29.0493 52.1963 29.5506 52.1963 30.1431V34.0601H51.0615V23.4233H52.1963ZM62.0674 33.2671C62.2542 33.2671 62.4456 33.2511 62.6416 33.2192C62.8376 33.1873 62.9971 33.1486 63.1201 33.103V33.9849C62.988 34.0441 62.8034 34.0942 62.5664 34.1353C62.334 34.1763 62.1061 34.1968 61.8828 34.1968C61.4863 34.1968 61.1263 34.1284 60.8027 33.9917C60.4792 33.8504 60.2194 33.6134 60.0234 33.2808C59.832 32.9481 59.7363 32.4878 59.7363 31.8999V27.4565H58.6699V26.9028L59.7432 26.4585L60.1943 24.8315H60.8779V26.5679H63.0723V27.4565H60.8779V31.8657C60.8779 32.3351 60.985 32.686 61.1992 32.9185C61.418 33.1509 61.7074 33.2671 62.0674 33.2671ZM69.4844 32.0093C69.4844 32.4878 69.3636 32.8911 69.1221 33.2192C68.8851 33.5428 68.5433 33.7866 68.0967 33.9507C67.6546 34.1147 67.126 34.1968 66.5107 34.1968C65.9867 34.1968 65.5332 34.1558 65.1504 34.0737C64.7676 33.9917 64.4326 33.8755 64.1455 33.7251V32.6792C64.4508 32.8296 64.8154 32.9663 65.2393 33.0894C65.6631 33.2124 66.096 33.2739 66.5381 33.2739C67.1852 33.2739 67.6546 33.1691 67.9463 32.9595C68.238 32.7498 68.3838 32.465 68.3838 32.105C68.3838 31.8999 68.3245 31.7199 68.2061 31.5649C68.0921 31.4054 67.8984 31.2528 67.625 31.1069C67.3516 30.9565 66.9733 30.7925 66.4902 30.6147C66.0117 30.4325 65.597 30.2524 65.2461 30.0747C64.8997 29.8924 64.6309 29.6714 64.4395 29.4116C64.2526 29.1519 64.1592 28.8146 64.1592 28.3999C64.1592 27.7664 64.4144 27.2811 64.9248 26.9438C65.4398 26.6021 66.1143 26.4312 66.9482 26.4312C67.3994 26.4312 67.821 26.4767 68.2129 26.5679C68.6094 26.6545 68.9785 26.7729 69.3203 26.9233L68.9375 27.8325C68.6276 27.7004 68.2972 27.5887 67.9463 27.4976C67.5954 27.4064 67.2376 27.3608 66.873 27.3608C66.349 27.3608 65.9456 27.4474 65.6631 27.6206C65.3851 27.7938 65.2461 28.0308 65.2461 28.3315C65.2461 28.564 65.3099 28.7554 65.4375 28.9058C65.5697 29.0562 65.7793 29.1974 66.0664 29.3296C66.3535 29.4618 66.7318 29.6167 67.2012 29.7944C67.6706 29.9676 68.0762 30.1476 68.418 30.3345C68.7598 30.5168 69.0218 30.7401 69.2041 31.0044C69.391 31.2642 69.4844 31.5991 69.4844 32.0093ZM81.3857 34.0601L80.1553 30.8882H76.1494L74.9258 34.0601H73.75L77.6602 24.0249H78.7061L82.5889 34.0601H81.3857ZM79.8066 29.856L78.6377 26.7046C78.6104 26.6226 78.5648 26.4881 78.501 26.3013C78.4417 26.1144 78.3802 25.9207 78.3164 25.7202C78.2526 25.5197 78.2002 25.3579 78.1592 25.2349C78.1136 25.4217 78.0635 25.6086 78.0088 25.7954C77.9587 25.9777 77.9085 26.1486 77.8584 26.3081C77.8083 26.4631 77.765 26.5952 77.7285 26.7046L76.5391 29.856H79.8066ZM84.9473 34.0601H83.8057V23.4233H84.9473V34.0601ZM88.4883 34.0601H87.3467V23.4233H88.4883V34.0601ZM97.9287 26.4312C98.0791 26.4312 98.2363 26.4403 98.4004 26.4585C98.5645 26.4722 98.7103 26.4927 98.8379 26.52L98.6943 27.5728C98.5713 27.5409 98.4346 27.5158 98.2842 27.4976C98.1338 27.4793 97.9925 27.4702 97.8604 27.4702C97.5596 27.4702 97.2747 27.5317 97.0059 27.6548C96.7415 27.7733 96.5091 27.9465 96.3086 28.1743C96.1081 28.3976 95.9508 28.6688 95.8369 28.9878C95.723 29.3022 95.666 29.6532 95.666 30.0405V34.0601H94.5244V26.5679H95.4678L95.5908 27.9487H95.6387C95.7936 27.6707 95.9805 27.4178 96.1992 27.1899C96.418 26.9575 96.6709 26.7729 96.958 26.6362C97.2497 26.4995 97.5732 26.4312 97.9287 26.4312ZM101.388 26.5679V34.0601H100.253V26.5679H101.388ZM100.834 23.7651C101.021 23.7651 101.18 23.8267 101.312 23.9497C101.449 24.0682 101.518 24.255 101.518 24.5103C101.518 24.7609 101.449 24.9478 101.312 25.0708C101.18 25.1938 101.021 25.2554 100.834 25.2554C100.638 25.2554 100.474 25.1938 100.342 25.0708C100.214 24.9478 100.15 24.7609 100.15 24.5103C100.15 24.255 100.214 24.0682 100.342 23.9497C100.474 23.8267 100.638 23.7651 100.834 23.7651ZM105.886 37.4233C104.901 37.4233 104.143 37.2388 103.609 36.8696C103.076 36.505 102.81 35.9924 102.81 35.3315C102.81 34.8621 102.958 34.4611 103.254 34.1284C103.555 33.7957 103.969 33.5747 104.498 33.4653C104.302 33.3742 104.133 33.2375 103.992 33.0552C103.855 32.8729 103.787 32.6632 103.787 32.4263C103.787 32.1528 103.862 31.9136 104.013 31.7085C104.168 31.4989 104.402 31.2983 104.717 31.1069C104.325 30.9474 104.006 30.6785 103.76 30.3003C103.518 29.9175 103.397 29.4731 103.397 28.9673C103.397 28.4295 103.509 27.9715 103.732 27.5933C103.956 27.2104 104.279 26.9188 104.703 26.7183C105.127 26.5177 105.64 26.4175 106.241 26.4175C106.373 26.4175 106.506 26.4243 106.638 26.438C106.774 26.4471 106.904 26.4631 107.027 26.4858C107.15 26.5041 107.257 26.5269 107.349 26.5542H109.919V27.2856L108.538 27.4565C108.675 27.6343 108.789 27.8485 108.88 28.0991C108.971 28.3498 109.017 28.6278 109.017 28.9331C109.017 29.6805 108.764 30.2752 108.258 30.7173C107.752 31.1548 107.057 31.3735 106.173 31.3735C105.963 31.3735 105.749 31.3553 105.53 31.3188C105.307 31.4419 105.136 31.5786 105.018 31.729C104.904 31.8794 104.847 32.0526 104.847 32.2485C104.847 32.3944 104.89 32.5106 104.977 32.5972C105.068 32.6838 105.198 32.7476 105.366 32.7886C105.535 32.825 105.738 32.8433 105.975 32.8433H107.294C108.11 32.8433 108.734 33.0142 109.167 33.356C109.604 33.6978 109.823 34.1968 109.823 34.853C109.823 35.6825 109.486 36.3182 108.812 36.7603C108.137 37.2023 107.162 37.4233 105.886 37.4233ZM105.92 36.5347C106.54 36.5347 107.052 36.4709 107.458 36.3433C107.868 36.2202 108.174 36.0402 108.374 35.8032C108.579 35.5708 108.682 35.2928 108.682 34.9692C108.682 34.6685 108.613 34.4406 108.477 34.2856C108.34 34.1353 108.139 34.035 107.875 33.9849C107.611 33.9302 107.287 33.9028 106.904 33.9028H105.605C105.268 33.9028 104.974 33.9552 104.724 34.0601C104.473 34.1649 104.279 34.3198 104.143 34.5249C104.01 34.73 103.944 34.9852 103.944 35.2905C103.944 35.6961 104.115 36.0037 104.457 36.2134C104.799 36.4276 105.286 36.5347 105.92 36.5347ZM106.214 30.5464C106.756 30.5464 107.164 30.4097 107.438 30.1362C107.711 29.8628 107.848 29.464 107.848 28.9399C107.848 28.3794 107.709 27.9601 107.431 27.6821C107.153 27.3996 106.743 27.2583 106.2 27.2583C105.681 27.2583 105.28 27.4041 104.997 27.6958C104.719 27.9829 104.58 28.4045 104.58 28.9604C104.58 29.4709 104.721 29.8628 105.004 30.1362C105.286 30.4097 105.69 30.5464 106.214 30.5464ZM112.53 23.4233V26.6021C112.53 26.7843 112.526 26.9689 112.517 27.1558C112.507 27.3381 112.492 27.5067 112.469 27.6616H112.544C112.699 27.3973 112.895 27.1763 113.132 26.9985C113.373 26.8162 113.647 26.6795 113.952 26.5884C114.257 26.4927 114.581 26.4448 114.923 26.4448C115.524 26.4448 116.026 26.5405 116.427 26.7319C116.832 26.9233 117.135 27.2196 117.336 27.6206C117.541 28.0216 117.644 28.5412 117.644 29.1792V34.0601H116.522V29.2544C116.522 28.63 116.379 28.1629 116.092 27.853C115.809 27.5431 115.374 27.3882 114.786 27.3882C114.23 27.3882 113.786 27.4953 113.453 27.7095C113.125 27.9191 112.888 28.229 112.742 28.6392C112.601 29.0493 112.53 29.5506 112.53 30.1431V34.0601H111.396V23.4233H112.53ZM122.401 33.2671C122.588 33.2671 122.78 33.2511 122.976 33.2192C123.172 33.1873 123.331 33.1486 123.454 33.103V33.9849C123.322 34.0441 123.137 34.0942 122.9 34.1353C122.668 34.1763 122.44 34.1968 122.217 34.1968C121.82 34.1968 121.46 34.1284 121.137 33.9917C120.813 33.8504 120.553 33.6134 120.357 33.2808C120.166 32.9481 120.07 32.4878 120.07 31.8999V27.4565H119.004V26.9028L120.077 26.4585L120.528 24.8315H121.212V26.5679H123.406V27.4565H121.212V31.8657C121.212 32.3351 121.319 32.686 121.533 32.9185C121.752 33.1509 122.041 33.2671 122.401 33.2671ZM132.013 26.4312C132.163 26.4312 132.32 26.4403 132.484 26.4585C132.648 26.4722 132.794 26.4927 132.922 26.52L132.778 27.5728C132.655 27.5409 132.519 27.5158 132.368 27.4976C132.218 27.4793 132.076 27.4702 131.944 27.4702C131.644 27.4702 131.359 27.5317 131.09 27.6548C130.826 27.7733 130.593 27.9465 130.393 28.1743C130.192 28.3976 130.035 28.6688 129.921 28.9878C129.807 29.3022 129.75 29.6532 129.75 30.0405V34.0601H128.608V26.5679H129.552L129.675 27.9487H129.723C129.878 27.6707 130.064 27.4178 130.283 27.1899C130.502 26.9575 130.755 26.7729 131.042 26.6362C131.334 26.4995 131.657 26.4312 132.013 26.4312ZM137.222 26.4312C137.86 26.4312 138.407 26.5724 138.862 26.855C139.318 27.1375 139.667 27.534 139.908 28.0444C140.15 28.5503 140.271 29.1427 140.271 29.8218V30.5259H135.096C135.109 31.4054 135.328 32.0754 135.752 32.5356C136.176 32.9959 136.773 33.2261 137.543 33.2261C138.017 33.2261 138.436 33.1828 138.801 33.0962C139.165 33.0096 139.544 32.882 139.936 32.7134V33.7114C139.557 33.88 139.181 34.0031 138.808 34.0806C138.438 34.158 138.001 34.1968 137.495 34.1968C136.775 34.1968 136.146 34.0509 135.608 33.7593C135.075 33.4631 134.66 33.0301 134.364 32.4604C134.068 31.8908 133.92 31.1935 133.92 30.3687C133.92 29.562 134.054 28.8647 134.323 28.2769C134.597 27.6844 134.979 27.2287 135.472 26.9097C135.968 26.5907 136.552 26.4312 137.222 26.4312ZM137.208 27.3608C136.602 27.3608 136.119 27.5591 135.759 27.9556C135.399 28.3521 135.185 28.9058 135.116 29.6167H139.081C139.076 29.1701 139.006 28.7782 138.869 28.4409C138.737 28.0991 138.534 27.8348 138.261 27.6479C137.987 27.4565 137.636 27.3608 137.208 27.3608ZM147.045 32.0093C147.045 32.4878 146.924 32.8911 146.683 33.2192C146.446 33.5428 146.104 33.7866 145.657 33.9507C145.215 34.1147 144.687 34.1968 144.071 34.1968C143.547 34.1968 143.094 34.1558 142.711 34.0737C142.328 33.9917 141.993 33.8755 141.706 33.7251V32.6792C142.011 32.8296 142.376 32.9663 142.8 33.0894C143.224 33.2124 143.657 33.2739 144.099 33.2739C144.746 33.2739 145.215 33.1691 145.507 32.9595C145.799 32.7498 145.944 32.465 145.944 32.105C145.944 31.8999 145.885 31.7199 145.767 31.5649C145.653 31.4054 145.459 31.2528 145.186 31.1069C144.912 30.9565 144.534 30.7925 144.051 30.6147C143.572 30.4325 143.158 30.2524 142.807 30.0747C142.46 29.8924 142.191 29.6714 142 29.4116C141.813 29.1519 141.72 28.8146 141.72 28.3999C141.72 27.7664 141.975 27.2811 142.485 26.9438C143 26.6021 143.675 26.4312 144.509 26.4312C144.96 26.4312 145.382 26.4767 145.773 26.5679C146.17 26.6545 146.539 26.7729 146.881 26.9233L146.498 27.8325C146.188 27.7004 145.858 27.5887 145.507 27.4976C145.156 27.4064 144.798 27.3608 144.434 27.3608C143.91 27.3608 143.506 27.4474 143.224 27.6206C142.946 27.7938 142.807 28.0308 142.807 28.3315C142.807 28.564 142.87 28.7554 142.998 28.9058C143.13 29.0562 143.34 29.1974 143.627 29.3296C143.914 29.4618 144.292 29.6167 144.762 29.7944C145.231 29.9676 145.637 30.1476 145.979 30.3345C146.32 30.5168 146.582 30.7401 146.765 31.0044C146.951 31.2642 147.045 31.5991 147.045 32.0093ZM151.755 26.4312C152.393 26.4312 152.94 26.5724 153.396 26.855C153.851 27.1375 154.2 27.534 154.441 28.0444C154.683 28.5503 154.804 29.1427 154.804 29.8218V30.5259H149.629C149.643 31.4054 149.861 32.0754 150.285 32.5356C150.709 32.9959 151.306 33.2261 152.076 33.2261C152.55 33.2261 152.969 33.1828 153.334 33.0962C153.699 33.0096 154.077 32.882 154.469 32.7134V33.7114C154.09 33.88 153.715 34.0031 153.341 34.0806C152.972 34.158 152.534 34.1968 152.028 34.1968C151.308 34.1968 150.679 34.0509 150.142 33.7593C149.608 33.4631 149.194 33.0301 148.897 32.4604C148.601 31.8908 148.453 31.1935 148.453 30.3687C148.453 29.562 148.588 28.8647 148.856 28.2769C149.13 27.6844 149.513 27.2287 150.005 26.9097C150.502 26.5907 151.085 26.4312 151.755 26.4312ZM151.741 27.3608C151.135 27.3608 150.652 27.5591 150.292 27.9556C149.932 28.3521 149.718 28.9058 149.649 29.6167H153.614C153.61 29.1701 153.539 28.7782 153.402 28.4409C153.27 28.0991 153.067 27.8348 152.794 27.6479C152.521 27.4565 152.17 27.3608 151.741 27.3608ZM160.136 26.4312C160.286 26.4312 160.443 26.4403 160.607 26.4585C160.771 26.4722 160.917 26.4927 161.045 26.52L160.901 27.5728C160.778 27.5409 160.642 27.5158 160.491 27.4976C160.341 27.4793 160.2 27.4702 160.067 27.4702C159.767 27.4702 159.482 27.5317 159.213 27.6548C158.949 27.7733 158.716 27.9465 158.516 28.1743C158.315 28.3976 158.158 28.6688 158.044 28.9878C157.93 29.3022 157.873 29.6532 157.873 30.0405V34.0601H156.731V26.5679H157.675L157.798 27.9487H157.846C158.001 27.6707 158.188 27.4178 158.406 27.1899C158.625 26.9575 158.878 26.7729 159.165 26.6362C159.457 26.4995 159.78 26.4312 160.136 26.4312ZM164.107 34.0601L161.264 26.5679H162.48L164.128 31.1001C164.242 31.41 164.358 31.7518 164.477 32.1255C164.595 32.4992 164.677 32.8 164.723 33.0278H164.771C164.825 32.8 164.916 32.4992 165.044 32.1255C165.172 31.7472 165.288 31.4054 165.393 31.1001L167.04 26.5679H168.257L165.406 34.0601H164.107ZM172.345 26.4312C172.983 26.4312 173.53 26.5724 173.985 26.855C174.441 27.1375 174.79 27.534 175.031 28.0444C175.273 28.5503 175.394 29.1427 175.394 29.8218V30.5259H170.219C170.232 31.4054 170.451 32.0754 170.875 32.5356C171.299 32.9959 171.896 33.2261 172.666 33.2261C173.14 33.2261 173.559 33.1828 173.924 33.0962C174.288 33.0096 174.667 32.882 175.059 32.7134V33.7114C174.68 33.88 174.304 34.0031 173.931 34.0806C173.562 34.158 173.124 34.1968 172.618 34.1968C171.898 34.1968 171.269 34.0509 170.731 33.7593C170.198 33.4631 169.784 33.0301 169.487 32.4604C169.191 31.8908 169.043 31.1935 169.043 30.3687C169.043 29.562 169.177 28.8647 169.446 28.2769C169.72 27.6844 170.103 27.2287 170.595 26.9097C171.091 26.5907 171.675 26.4312 172.345 26.4312ZM172.331 27.3608C171.725 27.3608 171.242 27.5591 170.882 27.9556C170.522 28.3521 170.308 28.9058 170.239 29.6167H174.204C174.2 29.1701 174.129 28.7782 173.992 28.4409C173.86 28.0991 173.657 27.8348 173.384 27.6479C173.11 27.4565 172.759 27.3608 172.331 27.3608ZM179.987 34.1968C179.039 34.1968 178.287 33.8732 177.731 33.2261C177.18 32.5789 176.904 31.6174 176.904 30.3413C176.904 29.0516 177.187 28.0786 177.752 27.4224C178.317 26.7616 179.069 26.4312 180.008 26.4312C180.404 26.4312 180.751 26.4836 181.047 26.5884C181.343 26.6932 181.598 26.8345 181.812 27.0122C182.027 27.1854 182.207 27.3836 182.353 27.6069H182.435C182.416 27.4657 182.398 27.272 182.38 27.0259C182.362 26.7798 182.353 26.5793 182.353 26.4243V23.4233H183.487V34.0601H182.571L182.4 32.9937H182.353C182.211 33.217 182.031 33.4198 181.812 33.6021C181.598 33.7843 181.341 33.9302 181.04 34.0396C180.744 34.1444 180.393 34.1968 179.987 34.1968ZM180.165 33.2534C180.967 33.2534 181.535 33.0256 181.867 32.5698C182.2 32.1141 182.366 31.4373 182.366 30.5396V30.3345C182.366 29.382 182.207 28.6506 181.888 28.1401C181.573 27.6297 180.999 27.3745 180.165 27.3745C179.468 27.3745 178.946 27.6434 178.6 28.1812C178.253 28.7144 178.08 29.4435 178.08 30.3687C178.08 31.2892 178.251 32.0002 178.593 32.5015C178.939 33.0028 179.463 33.2534 180.165 33.2534ZM200.085 29.0698C200.085 29.5028 200.035 29.9266 199.935 30.3413C199.839 30.7515 199.691 31.1229 199.49 31.4556C199.29 31.7837 199.039 32.0457 198.738 32.2417C198.442 32.4377 198.091 32.5356 197.686 32.5356C197.262 32.5356 196.924 32.4126 196.674 32.1665C196.423 31.9204 196.273 31.6287 196.223 31.2915H196.161C195.988 31.6515 195.733 31.95 195.396 32.187C195.063 32.4194 194.653 32.5356 194.165 32.5356C193.454 32.5356 192.905 32.3009 192.518 31.8315C192.135 31.3576 191.943 30.7287 191.943 29.9448C191.943 29.3341 192.064 28.7941 192.306 28.3247C192.552 27.8507 192.896 27.4793 193.338 27.2104C193.785 26.937 194.311 26.8003 194.917 26.8003C195.323 26.8003 195.717 26.8345 196.1 26.9028C196.482 26.9712 196.788 27.0464 197.016 27.1284L196.879 29.8833C196.874 30.0519 196.87 30.1818 196.865 30.2729C196.861 30.3595 196.858 30.4279 196.858 30.478C196.858 30.9702 196.945 31.3029 197.118 31.4761C197.296 31.6447 197.51 31.729 197.761 31.729C198.066 31.729 198.321 31.6105 198.526 31.3735C198.736 31.132 198.896 30.8107 199.005 30.4097C199.114 30.0041 199.169 29.5552 199.169 29.063C199.169 28.1925 198.993 27.4497 198.643 26.8345C198.292 26.2192 197.806 25.7498 197.187 25.4263C196.571 25.1027 195.863 24.9409 195.061 24.9409C194.263 24.9409 193.554 25.0662 192.935 25.3169C192.319 25.5675 191.798 25.923 191.369 26.3833C190.945 26.839 190.624 27.3813 190.405 28.0103C190.187 28.6392 190.077 29.3341 190.077 30.0952C190.077 31.0249 190.241 31.8156 190.569 32.4673C190.902 33.119 191.387 33.6157 192.025 33.9575C192.668 34.2948 193.45 34.4634 194.37 34.4634C194.926 34.4634 195.462 34.4019 195.977 34.2788C196.492 34.1558 196.952 34.0168 197.357 33.8618V34.7505C196.956 34.9191 196.507 35.0558 196.011 35.1606C195.514 35.27 194.967 35.3247 194.37 35.3247C193.272 35.3247 192.333 35.1174 191.554 34.7026C190.774 34.2925 190.177 33.7 189.763 32.9253C189.348 32.1506 189.141 31.2209 189.141 30.1362C189.141 29.2567 189.275 28.4478 189.544 27.7095C189.817 26.9712 190.209 26.3309 190.72 25.7886C191.235 25.2463 191.857 24.827 192.586 24.5308C193.32 24.23 194.145 24.0796 195.061 24.0796C196.04 24.0796 196.906 24.2824 197.658 24.688C198.415 25.089 199.007 25.6632 199.436 26.4106C199.868 27.1535 200.085 28.0399 200.085 29.0698ZM192.962 29.9722C192.962 30.5783 193.083 31.0226 193.324 31.3052C193.566 31.5877 193.901 31.729 194.329 31.729C194.858 31.729 195.245 31.5308 195.491 31.1343C195.742 30.7378 195.885 30.2137 195.922 29.562L196.004 27.7778C195.872 27.7368 195.71 27.7026 195.519 27.6753C195.332 27.6434 195.136 27.6274 194.931 27.6274C194.461 27.6274 194.081 27.7391 193.789 27.9624C193.502 28.1857 193.292 28.4751 193.16 28.8306C193.028 29.186 192.962 29.5666 192.962 29.9722ZM208.356 34.0601H201.418V33.1851L206.798 25.105H201.603V24.0659H208.213V24.9409L202.826 33.021H208.356V34.0601ZM211.228 26.5679V34.0601H210.093V26.5679H211.228ZM210.674 23.7651C210.861 23.7651 211.02 23.8267 211.152 23.9497C211.289 24.0682 211.357 24.255 211.357 24.5103C211.357 24.7609 211.289 24.9478 211.152 25.0708C211.02 25.1938 210.861 25.2554 210.674 25.2554C210.478 25.2554 210.314 25.1938 210.182 25.0708C210.054 24.9478 209.99 24.7609 209.99 24.5103C209.99 24.255 210.054 24.0682 210.182 23.9497C210.314 23.8267 210.478 23.7651 210.674 23.7651ZM221.769 26.4312C222.593 26.4312 223.215 26.6476 223.635 27.0806C224.054 27.509 224.264 28.1994 224.264 29.1519V34.0601H223.143V29.2065C223.143 28.6004 223.01 28.147 222.746 27.8462C222.486 27.5409 222.099 27.3882 221.584 27.3882C220.859 27.3882 220.333 27.5978 220.005 28.0171C219.677 28.4364 219.513 29.0539 219.513 29.8696V34.0601H218.385V29.2065C218.385 28.8009 218.326 28.4637 218.207 28.1948C218.093 27.9259 217.92 27.7254 217.688 27.5933C217.46 27.4565 217.17 27.3882 216.819 27.3882C216.323 27.3882 215.924 27.4907 215.623 27.6958C215.322 27.9009 215.104 28.2062 214.967 28.6118C214.835 29.0129 214.769 29.5073 214.769 30.0952V34.0601H213.634V26.5679H214.55L214.721 27.6274H214.782C214.933 27.3677 215.122 27.1489 215.35 26.9712C215.577 26.7935 215.833 26.659 216.115 26.5679C216.398 26.4767 216.699 26.4312 217.018 26.4312C217.587 26.4312 218.063 26.5382 218.446 26.7524C218.834 26.9621 219.114 27.2834 219.287 27.7163H219.349C219.595 27.2834 219.932 26.9621 220.36 26.7524C220.789 26.5382 221.258 26.4312 221.769 26.4312ZM229.479 26.4312C230.118 26.4312 230.664 26.5724 231.12 26.855C231.576 27.1375 231.924 27.534 232.166 28.0444C232.408 28.5503 232.528 29.1427 232.528 29.8218V30.5259H227.354C227.367 31.4054 227.586 32.0754 228.01 32.5356C228.434 32.9959 229.031 33.2261 229.801 33.2261C230.275 33.2261 230.694 33.1828 231.059 33.0962C231.423 33.0096 231.801 32.882 232.193 32.7134V33.7114C231.815 33.88 231.439 34.0031 231.065 34.0806C230.696 34.158 230.259 34.1968 229.753 34.1968C229.033 34.1968 228.404 34.0509 227.866 33.7593C227.333 33.4631 226.918 33.0301 226.622 32.4604C226.326 31.8908 226.178 31.1935 226.178 30.3687C226.178 29.562 226.312 28.8647 226.581 28.2769C226.854 27.6844 227.237 27.2287 227.729 26.9097C228.226 26.5907 228.81 26.4312 229.479 26.4312ZM229.466 27.3608C228.86 27.3608 228.377 27.5591 228.017 27.9556C227.657 28.3521 227.442 28.9058 227.374 29.6167H231.339C231.334 29.1701 231.264 28.7782 231.127 28.4409C230.995 28.0991 230.792 27.8348 230.519 27.6479C230.245 27.4565 229.894 27.3608 229.466 27.3608ZM237.122 34.1968C236.174 34.1968 235.422 33.8732 234.866 33.2261C234.315 32.5789 234.039 31.6174 234.039 30.3413C234.039 29.0516 234.322 28.0786 234.887 27.4224C235.452 26.7616 236.204 26.4312 237.143 26.4312C237.539 26.4312 237.885 26.4836 238.182 26.5884C238.478 26.6932 238.733 26.8345 238.947 27.0122C239.161 27.1854 239.341 27.3836 239.487 27.6069H239.569C239.551 27.4657 239.533 27.272 239.515 27.0259C239.496 26.7798 239.487 26.5793 239.487 26.4243V23.4233H240.622V34.0601H239.706L239.535 32.9937H239.487C239.346 33.217 239.166 33.4198 238.947 33.6021C238.733 33.7843 238.476 33.9302 238.175 34.0396C237.879 34.1444 237.528 34.1968 237.122 34.1968ZM237.3 33.2534C238.102 33.2534 238.669 33.0256 239.002 32.5698C239.335 32.1141 239.501 31.4373 239.501 30.5396V30.3345C239.501 29.382 239.341 28.6506 239.022 28.1401C238.708 27.6297 238.134 27.3745 237.3 27.3745C236.603 27.3745 236.081 27.6434 235.734 28.1812C235.388 28.7144 235.215 29.4435 235.215 30.3687C235.215 31.2892 235.386 32.0002 235.728 32.5015C236.074 33.0028 236.598 33.2534 237.3 33.2534Z" fill="white"/>
<path d="M1137.58 34.0601H1136.41V25.0913H1133.26V24.0659H1140.71V25.0913H1137.58V34.0601ZM1144.93 26.4312C1145.57 26.4312 1146.12 26.5724 1146.57 26.855C1147.03 27.1375 1147.38 27.534 1147.62 28.0444C1147.86 28.5503 1147.98 29.1427 1147.98 29.8218V30.5259H1142.8C1142.82 31.4054 1143.04 32.0754 1143.46 32.5356C1143.88 32.9959 1144.48 33.2261 1145.25 33.2261C1145.73 33.2261 1146.15 33.1828 1146.51 33.0962C1146.87 33.0096 1147.25 32.882 1147.64 32.7134V33.7114C1147.27 33.88 1146.89 34.0031 1146.52 34.0806C1146.15 34.158 1145.71 34.1968 1145.2 34.1968C1144.48 34.1968 1143.86 34.0509 1143.32 33.7593C1142.78 33.4631 1142.37 33.0301 1142.07 32.4604C1141.78 31.8908 1141.63 31.1935 1141.63 30.3687C1141.63 29.562 1141.76 28.8647 1142.03 28.2769C1142.31 27.6844 1142.69 27.2287 1143.18 26.9097C1143.68 26.5907 1144.26 26.4312 1144.93 26.4312ZM1144.92 27.3608C1144.31 27.3608 1143.83 27.5591 1143.47 27.9556C1143.11 28.3521 1142.89 28.9058 1142.83 29.6167H1146.79C1146.79 29.1701 1146.71 28.7782 1146.58 28.4409C1146.45 28.0991 1146.24 27.8348 1145.97 27.6479C1145.7 27.4565 1145.35 27.3608 1144.92 27.3608ZM1153.31 26.4312C1153.46 26.4312 1153.62 26.4403 1153.78 26.4585C1153.95 26.4722 1154.09 26.4927 1154.22 26.52L1154.08 27.5728C1153.95 27.5409 1153.82 27.5158 1153.67 27.4976C1153.52 27.4793 1153.38 27.4702 1153.24 27.4702C1152.94 27.4702 1152.66 27.5317 1152.39 27.6548C1152.12 27.7733 1151.89 27.9465 1151.69 28.1743C1151.49 28.3976 1151.33 28.6688 1151.22 28.9878C1151.11 29.3022 1151.05 29.6532 1151.05 30.0405V34.0601H1149.91V26.5679H1150.85L1150.97 27.9487H1151.02C1151.18 27.6707 1151.36 27.4178 1151.58 27.1899C1151.8 26.9575 1152.05 26.7729 1152.34 26.6362C1152.63 26.4995 1152.96 26.4312 1153.31 26.4312ZM1163.77 26.4312C1164.6 26.4312 1165.22 26.6476 1165.64 27.0806C1166.06 27.509 1166.27 28.1994 1166.27 29.1519V34.0601H1165.14V29.2065C1165.14 28.6004 1165.01 28.147 1164.75 27.8462C1164.49 27.5409 1164.1 27.3882 1163.59 27.3882C1162.86 27.3882 1162.33 27.5978 1162.01 28.0171C1161.68 28.4364 1161.51 29.0539 1161.51 29.8696V34.0601H1160.39V29.2065C1160.39 28.8009 1160.33 28.4637 1160.21 28.1948C1160.1 27.9259 1159.92 27.7254 1159.69 27.5933C1159.46 27.4565 1159.17 27.3882 1158.82 27.3882C1158.32 27.3882 1157.93 27.4907 1157.62 27.6958C1157.32 27.9009 1157.11 28.2062 1156.97 28.6118C1156.84 29.0129 1156.77 29.5073 1156.77 30.0952V34.0601H1155.64V26.5679H1156.55L1156.72 27.6274H1156.78C1156.93 27.3677 1157.12 27.1489 1157.35 26.9712C1157.58 26.7935 1157.83 26.659 1158.12 26.5679C1158.4 26.4767 1158.7 26.4312 1159.02 26.4312C1159.59 26.4312 1160.07 26.5382 1160.45 26.7524C1160.84 26.9621 1161.12 27.2834 1161.29 27.7163H1161.35C1161.6 27.2834 1161.93 26.9621 1162.36 26.7524C1162.79 26.5382 1163.26 26.4312 1163.77 26.4312ZM1173.44 32.0093C1173.44 32.4878 1173.32 32.8911 1173.08 33.2192C1172.84 33.5428 1172.5 33.7866 1172.06 33.9507C1171.61 34.1147 1171.08 34.1968 1170.47 34.1968C1169.95 34.1968 1169.49 34.1558 1169.11 34.0737C1168.73 33.9917 1168.39 33.8755 1168.1 33.7251V32.6792C1168.41 32.8296 1168.77 32.9663 1169.2 33.0894C1169.62 33.2124 1170.06 33.2739 1170.5 33.2739C1171.14 33.2739 1171.61 33.1691 1171.91 32.9595C1172.2 32.7498 1172.34 32.465 1172.34 32.105C1172.34 31.8999 1172.28 31.7199 1172.17 31.5649C1172.05 31.4054 1171.86 31.2528 1171.58 31.1069C1171.31 30.9565 1170.93 30.7925 1170.45 30.6147C1169.97 30.4325 1169.56 30.2524 1169.21 30.0747C1168.86 29.8924 1168.59 29.6714 1168.4 29.4116C1168.21 29.1519 1168.12 28.8146 1168.12 28.3999C1168.12 27.7664 1168.37 27.2811 1168.88 26.9438C1169.4 26.6021 1170.07 26.4312 1170.91 26.4312C1171.36 26.4312 1171.78 26.4767 1172.17 26.5679C1172.57 26.6545 1172.94 26.7729 1173.28 26.9233L1172.9 27.8325C1172.59 27.7004 1172.26 27.5887 1171.91 27.4976C1171.55 27.4064 1171.2 27.3608 1170.83 27.3608C1170.31 27.3608 1169.9 27.4474 1169.62 27.6206C1169.34 27.7938 1169.21 28.0308 1169.21 28.3315C1169.21 28.564 1169.27 28.7554 1169.4 28.9058C1169.53 29.0562 1169.74 29.1974 1170.03 29.3296C1170.31 29.4618 1170.69 29.6167 1171.16 29.7944C1171.63 29.9676 1172.04 30.1476 1172.38 30.3345C1172.72 30.5168 1172.98 30.7401 1173.16 31.0044C1173.35 31.2642 1173.44 31.5991 1173.44 32.0093ZM1185.37 30.3003C1185.37 30.9155 1185.29 31.4647 1185.13 31.9478C1184.97 32.4308 1184.74 32.8387 1184.44 33.1714C1184.13 33.5041 1183.77 33.7593 1183.34 33.937C1182.92 34.1102 1182.44 34.1968 1181.9 34.1968C1181.4 34.1968 1180.94 34.1102 1180.52 33.937C1180.1 33.7593 1179.74 33.5041 1179.44 33.1714C1179.14 32.8387 1178.9 32.4308 1178.73 31.9478C1178.57 31.4647 1178.49 30.9155 1178.49 30.3003C1178.49 29.48 1178.63 28.7827 1178.91 28.2085C1179.18 27.6297 1179.58 27.1899 1180.09 26.8892C1180.61 26.5838 1181.23 26.4312 1181.95 26.4312C1182.63 26.4312 1183.23 26.5838 1183.74 26.8892C1184.25 27.1945 1184.65 27.6366 1184.93 28.2153C1185.22 28.7896 1185.37 29.4845 1185.37 30.3003ZM1179.66 30.3003C1179.66 30.9019 1179.74 31.4237 1179.9 31.8657C1180.06 32.3078 1180.31 32.6496 1180.64 32.8911C1180.97 33.1326 1181.4 33.2534 1181.93 33.2534C1182.45 33.2534 1182.87 33.1326 1183.21 32.8911C1183.54 32.6496 1183.79 32.3078 1183.95 31.8657C1184.11 31.4237 1184.19 30.9019 1184.19 30.3003C1184.19 29.7033 1184.11 29.1883 1183.95 28.7554C1183.79 28.3179 1183.54 27.9806 1183.21 27.7437C1182.88 27.5067 1182.45 27.3882 1181.92 27.3882C1181.14 27.3882 1180.57 27.6457 1180.2 28.1606C1179.84 28.6756 1179.66 29.3888 1179.66 30.3003ZM1190.66 27.4565H1188.8V34.0601H1187.66V27.4565H1186.34V26.9097L1187.66 26.5337V26.0347C1187.66 25.4058 1187.76 24.8953 1187.94 24.5034C1188.13 24.1069 1188.4 23.8153 1188.76 23.6284C1189.11 23.4416 1189.54 23.3481 1190.05 23.3481C1190.34 23.3481 1190.6 23.3732 1190.84 23.4233C1191.08 23.4735 1191.29 23.5304 1191.48 23.5942L1191.18 24.4897C1191.03 24.4396 1190.85 24.394 1190.66 24.353C1190.46 24.3075 1190.27 24.2847 1190.07 24.2847C1189.64 24.2847 1189.31 24.4259 1189.1 24.7085C1188.9 24.9865 1188.8 25.424 1188.8 26.021V26.5679H1190.66V27.4565ZM1200.53 32.0093C1200.53 32.4878 1200.41 32.8911 1200.17 33.2192C1199.93 33.5428 1199.59 33.7866 1199.14 33.9507C1198.7 34.1147 1198.17 34.1968 1197.55 34.1968C1197.03 34.1968 1196.58 34.1558 1196.19 34.0737C1195.81 33.9917 1195.48 33.8755 1195.19 33.7251V32.6792C1195.49 32.8296 1195.86 32.9663 1196.28 33.0894C1196.71 33.2124 1197.14 33.2739 1197.58 33.2739C1198.23 33.2739 1198.7 33.1691 1198.99 32.9595C1199.28 32.7498 1199.43 32.465 1199.43 32.105C1199.43 31.8999 1199.37 31.7199 1199.25 31.5649C1199.14 31.4054 1198.94 31.2528 1198.67 31.1069C1198.39 30.9565 1198.02 30.7925 1197.53 30.6147C1197.05 30.4325 1196.64 30.2524 1196.29 30.0747C1195.94 29.8924 1195.67 29.6714 1195.48 29.4116C1195.3 29.1519 1195.2 28.8146 1195.2 28.3999C1195.2 27.7664 1195.46 27.2811 1195.97 26.9438C1196.48 26.6021 1197.16 26.4312 1197.99 26.4312C1198.44 26.4312 1198.86 26.4767 1199.26 26.5679C1199.65 26.6545 1200.02 26.7729 1200.36 26.9233L1199.98 27.8325C1199.67 27.7004 1199.34 27.5887 1198.99 27.4976C1198.64 27.4064 1198.28 27.3608 1197.92 27.3608C1197.39 27.3608 1196.99 27.4474 1196.71 27.6206C1196.43 27.7938 1196.29 28.0308 1196.29 28.3315C1196.29 28.564 1196.35 28.7554 1196.48 28.9058C1196.61 29.0562 1196.82 29.1974 1197.11 29.3296C1197.4 29.4618 1197.77 29.6167 1198.24 29.7944C1198.71 29.9676 1199.12 30.1476 1199.46 30.3345C1199.8 30.5168 1200.06 30.7401 1200.25 31.0044C1200.43 31.2642 1200.53 31.5991 1200.53 32.0093ZM1205.24 26.4312C1205.88 26.4312 1206.42 26.5724 1206.88 26.855C1207.33 27.1375 1207.68 27.534 1207.92 28.0444C1208.17 28.5503 1208.29 29.1427 1208.29 29.8218V30.5259H1203.11C1203.12 31.4054 1203.34 32.0754 1203.77 32.5356C1204.19 32.9959 1204.79 33.2261 1205.56 33.2261C1206.03 33.2261 1206.45 33.1828 1206.82 33.0962C1207.18 33.0096 1207.56 32.882 1207.95 32.7134V33.7114C1207.57 33.88 1207.2 34.0031 1206.82 34.0806C1206.45 34.158 1206.02 34.1968 1205.51 34.1968C1204.79 34.1968 1204.16 34.0509 1203.62 33.7593C1203.09 33.4631 1202.68 33.0301 1202.38 32.4604C1202.08 31.8908 1201.94 31.1935 1201.94 30.3687C1201.94 29.562 1202.07 28.8647 1202.34 28.2769C1202.61 27.6844 1203 27.2287 1203.49 26.9097C1203.98 26.5907 1204.57 26.4312 1205.24 26.4312ZM1205.22 27.3608C1204.62 27.3608 1204.13 27.5591 1203.77 27.9556C1203.41 28.3521 1203.2 28.9058 1203.13 29.6167H1207.1C1207.09 29.1701 1207.02 28.7782 1206.88 28.4409C1206.75 28.0991 1206.55 27.8348 1206.28 27.6479C1206 27.4565 1205.65 27.3608 1205.22 27.3608ZM1213.62 26.4312C1213.77 26.4312 1213.93 26.4403 1214.09 26.4585C1214.25 26.4722 1214.4 26.4927 1214.53 26.52L1214.38 27.5728C1214.26 27.5409 1214.12 27.5158 1213.97 27.4976C1213.82 27.4793 1213.68 27.4702 1213.55 27.4702C1213.25 27.4702 1212.96 27.5317 1212.7 27.6548C1212.43 27.7733 1212.2 27.9465 1212 28.1743C1211.8 28.3976 1211.64 28.6688 1211.53 28.9878C1211.41 29.3022 1211.36 29.6532 1211.36 30.0405V34.0601H1210.21V26.5679H1211.16L1211.28 27.9487H1211.33C1211.48 27.6707 1211.67 27.4178 1211.89 27.1899C1212.11 26.9575 1212.36 26.7729 1212.65 26.6362C1212.94 26.4995 1213.26 26.4312 1213.62 26.4312ZM1217.59 34.0601L1214.75 26.5679H1215.96L1217.61 31.1001C1217.72 31.41 1217.84 31.7518 1217.96 32.1255C1218.08 32.4992 1218.16 32.8 1218.21 33.0278H1218.25C1218.31 32.8 1218.4 32.4992 1218.53 32.1255C1218.65 31.7472 1218.77 31.4054 1218.88 31.1001L1220.52 26.5679H1221.74L1218.89 34.0601H1217.59ZM1224.08 26.5679V34.0601H1222.94V26.5679H1224.08ZM1223.52 23.7651C1223.71 23.7651 1223.87 23.8267 1224 23.9497C1224.14 24.0682 1224.21 24.255 1224.21 24.5103C1224.21 24.7609 1224.14 24.9478 1224 25.0708C1223.87 25.1938 1223.71 25.2554 1223.52 25.2554C1223.33 25.2554 1223.16 25.1938 1223.03 25.0708C1222.9 24.9478 1222.84 24.7609 1222.84 24.5103C1222.84 24.255 1222.9 24.0682 1223.03 23.9497C1223.16 23.8267 1223.33 23.7651 1223.52 23.7651ZM1229.48 34.1968C1228.81 34.1968 1228.22 34.0578 1227.7 33.7798C1227.19 33.5018 1226.78 33.078 1226.5 32.5083C1226.21 31.9386 1226.07 31.2209 1226.07 30.355C1226.07 29.4481 1226.22 28.7075 1226.52 28.1333C1226.82 27.5545 1227.24 27.1261 1227.78 26.8481C1228.31 26.5701 1228.91 26.4312 1229.59 26.4312C1229.97 26.4312 1230.33 26.4699 1230.67 26.5474C1231.02 26.6203 1231.31 26.7137 1231.54 26.8276L1231.19 27.7778C1230.97 27.6867 1230.7 27.6047 1230.4 27.5317C1230.1 27.4588 1229.83 27.4224 1229.57 27.4224C1229.05 27.4224 1228.61 27.534 1228.27 27.7573C1227.93 27.9806 1227.67 28.3088 1227.5 28.7417C1227.33 29.1746 1227.24 29.7078 1227.24 30.3413C1227.24 30.9474 1227.32 31.4647 1227.49 31.8931C1227.66 32.3215 1227.91 32.6496 1228.23 32.8774C1228.57 33.1007 1228.98 33.2124 1229.48 33.2124C1229.87 33.2124 1230.23 33.1714 1230.55 33.0894C1230.87 33.0028 1231.16 32.9025 1231.42 32.7886V33.8003C1231.17 33.9279 1230.89 34.0259 1230.58 34.0942C1230.27 34.1626 1229.91 34.1968 1229.48 34.1968ZM1236.08 26.4312C1236.72 26.4312 1237.27 26.5724 1237.72 26.855C1238.18 27.1375 1238.53 27.534 1238.77 28.0444C1239.01 28.5503 1239.13 29.1427 1239.13 29.8218V30.5259H1233.96C1233.97 31.4054 1234.19 32.0754 1234.61 32.5356C1235.04 32.9959 1235.63 33.2261 1236.4 33.2261C1236.88 33.2261 1237.3 33.1828 1237.66 33.0962C1238.02 33.0096 1238.4 32.882 1238.79 32.7134V33.7114C1238.42 33.88 1238.04 34.0031 1237.67 34.0806C1237.3 34.158 1236.86 34.1968 1236.35 34.1968C1235.63 34.1968 1235.01 34.0509 1234.47 33.7593C1233.93 33.4631 1233.52 33.0301 1233.22 32.4604C1232.93 31.8908 1232.78 31.1935 1232.78 30.3687C1232.78 29.562 1232.91 28.8647 1233.18 28.2769C1233.46 27.6844 1233.84 27.2287 1234.33 26.9097C1234.83 26.5907 1235.41 26.4312 1236.08 26.4312ZM1236.07 27.3608C1235.46 27.3608 1234.98 27.5591 1234.62 27.9556C1234.26 28.3521 1234.04 28.9058 1233.98 29.6167H1237.94C1237.94 29.1701 1237.87 28.7782 1237.73 28.4409C1237.6 28.0991 1237.39 27.8348 1237.12 27.6479C1236.85 27.4565 1236.5 27.3608 1236.07 27.3608Z" fill="white"/>
</svg>
