<svg width="24" height="25" viewBox="0 0 24 25" fill="none" xmlns="http://www.w3.org/2000/svg">
<path d="M20.62 9.02129C19.57 4.40129 15.54 2.32129 12 2.32129C12 2.32129 12 2.32129 11.99 2.32129C8.46 2.32129 4.42 4.39129 3.37 9.01129C2.2 14.1713 5.36 18.5413 8.22 21.2913C9.28 22.3113 10.64 22.8213 12 22.8213C13.36 22.8213 14.72 22.3113 15.77 21.2913C18.63 18.5413 21.79 14.1813 20.62 9.02129ZM12 14.0313C10.26 14.0313 8.85 12.6213 8.85 10.8813C8.85 9.14129 10.26 7.73129 12 7.73129C13.74 7.73129 15.15 9.14129 15.15 10.8813C15.15 12.6213 13.74 14.0313 12 14.0313Z" fill="white"/>
</svg>
