<svg width="24" height="25" viewBox="0 0 24 25" fill="none" xmlns="http://www.w3.org/2000/svg">
<path d="M17 4.07129H7C4 4.07129 2 5.57129 2 9.07129V16.0713C2 19.5713 4 21.0713 7 21.0713H17C20 21.0713 22 19.5713 22 16.0713V9.07129C22 5.57129 20 4.07129 17 4.07129ZM17.47 10.1613L14.34 12.6613C13.68 13.1913 12.84 13.4513 12 13.4513C11.16 13.4513 10.31 13.1913 9.66 12.6613L6.53 10.1613C6.21 9.90129 6.16 9.42129 6.41 9.10129C6.67 8.78129 7.14 8.72129 7.46 8.98129L10.59 11.4813C11.35 12.0913 12.64 12.0913 13.4 11.4813L16.53 8.98129C16.85 8.72129 17.33 8.77129 17.58 9.10129C17.84 9.42129 17.79 9.90129 17.47 10.1613Z" fill="white"/>
</svg>
